G75*
G70*
%OFA0B0*%
%FSLAX24Y24*%
%IPPOS*%
%LPD*%
%AMOC8*
5,1,8,0,0,1.08239X$1,22.5*
%
%ADD10C,0.0180*%
%ADD11C,0.0150*%
%ADD12R,0.1000X0.1500*%
%ADD13R,0.2250X0.3500*%
%ADD14C,0.0920*%
%ADD15C,0.0720*%
%ADD16OC8,0.0720*%
%ADD17C,0.0720*%
%ADD18C,0.0872*%
%ADD19C,0.0833*%
%ADD20C,0.0840*%
%ADD21OC8,0.0760*%
%ADD22R,0.1280X0.1280*%
%ADD23OC8,0.1000*%
%ADD24C,0.0912*%
%ADD25C,0.0800*%
%ADD26R,0.0630X0.0460*%
%ADD27R,0.0460X0.0630*%
%ADD28C,0.1000*%
%ADD29C,0.0500*%
%ADD30C,0.0400*%
%ADD31C,0.0700*%
%ADD32C,0.0320*%
%ADD33OC8,0.1250*%
%ADD34OC8,0.1500*%
%ADD35OC8,0.0700*%
%ADD36OC8,0.0860*%
D10*
X041520Y019108D02*
X041657Y018971D01*
X041520Y019108D02*
X041520Y019381D01*
X041657Y019518D01*
X041794Y019518D01*
X041930Y019381D01*
X041930Y019108D01*
X042067Y018971D01*
X042204Y018971D01*
X042341Y019108D01*
X042341Y019381D01*
X042204Y019518D01*
X042341Y019892D02*
X041520Y019892D01*
X041794Y019892D02*
X041794Y020302D01*
X041930Y020439D01*
X042204Y020439D01*
X042341Y020302D01*
X042341Y019892D01*
X042204Y020813D02*
X042067Y020813D01*
X041930Y020949D01*
X041930Y021223D01*
X041794Y021360D01*
X041657Y021360D01*
X041520Y021223D01*
X041520Y020949D01*
X041657Y020813D01*
X042204Y020813D02*
X042341Y020949D01*
X042341Y021223D01*
X042204Y021360D01*
X011340Y038233D02*
X011340Y038814D01*
X011050Y038814D01*
X010953Y038717D01*
X010953Y038524D01*
X011050Y038427D01*
X011340Y038427D01*
X011147Y038427D02*
X010953Y038233D01*
X010640Y038233D02*
X010253Y038233D01*
X010447Y038524D02*
X010640Y038524D01*
X010640Y038814D02*
X010640Y038233D01*
X010640Y038814D02*
X010253Y038814D01*
X009940Y038814D02*
X009940Y038427D01*
X009747Y038233D01*
X009553Y038427D01*
X009553Y038814D01*
X008541Y038814D02*
X008347Y038814D01*
X008444Y038814D02*
X008444Y038233D01*
X008541Y038233D02*
X008347Y038233D01*
X008074Y038233D02*
X007881Y038233D01*
X007978Y038233D02*
X007978Y038814D01*
X008074Y038814D02*
X007881Y038814D01*
D11*
X046270Y018157D02*
X046981Y018157D01*
X046625Y017801D01*
X046625Y018275D01*
X046270Y017483D02*
X046270Y017010D01*
X046270Y017246D02*
X046981Y017246D01*
X046744Y017010D01*
X046862Y016691D02*
X046388Y016691D01*
X046270Y016573D01*
X046270Y016336D01*
X046388Y016218D01*
X046862Y016691D01*
X046981Y016573D01*
X046981Y016336D01*
X046862Y016218D01*
X046388Y016218D01*
X046270Y015900D02*
X046270Y015426D01*
X046744Y015900D01*
X046862Y015900D01*
X046981Y015781D01*
X046981Y015544D01*
X046862Y015426D01*
D12*
X011430Y016643D03*
D13*
X022555Y022893D03*
D14*
X022440Y013853D02*
X022440Y012933D01*
X024420Y012933D02*
X024420Y013853D01*
X026690Y013853D02*
X026690Y012933D01*
X028670Y012933D02*
X028670Y013853D01*
X030940Y013853D02*
X030940Y012933D01*
X032920Y012933D02*
X032920Y013853D01*
X035190Y013853D02*
X035190Y012933D01*
X037170Y012933D02*
X037170Y013853D01*
X039440Y013853D02*
X039440Y012933D01*
X041420Y012933D02*
X041420Y013853D01*
X009640Y014423D02*
X008720Y014423D01*
X008720Y016393D02*
X009640Y016393D01*
X009640Y018363D02*
X008720Y018363D01*
X008720Y026653D02*
X009640Y026653D01*
X009640Y028633D02*
X008720Y028633D01*
X008720Y035153D02*
X009640Y035153D01*
X009640Y037133D02*
X008720Y037133D01*
X040440Y037103D02*
X040440Y036183D01*
X042420Y036183D02*
X042420Y037103D01*
D15*
X028605Y031393D03*
X020230Y037393D03*
X014180Y035143D03*
X018680Y023843D03*
X025380Y023518D03*
X028380Y016643D03*
X038305Y016393D03*
X039880Y019143D03*
D16*
X038480Y019143D03*
X036930Y019768D03*
X035680Y019768D03*
X035243Y021143D03*
X034305Y022331D03*
X033368Y022143D03*
X032368Y022143D03*
X030430Y022143D03*
X028930Y021143D03*
X027305Y020143D03*
X024930Y021143D03*
X026430Y022143D03*
X023980Y023518D03*
X022180Y022643D03*
X018680Y022443D03*
X016680Y021643D03*
X016680Y025643D03*
X017180Y026893D03*
X021180Y026893D03*
X022180Y026643D03*
X023930Y028143D03*
X024930Y028143D03*
X026680Y029893D03*
X029805Y028268D03*
X027930Y027393D03*
X031930Y027393D03*
X033805Y028268D03*
X031993Y030018D03*
X031993Y031018D03*
X030005Y031393D03*
X028243Y033893D03*
X026680Y033893D03*
X025743Y034706D03*
X024180Y035893D03*
X021630Y037393D03*
X024180Y037893D03*
X018680Y037393D03*
X018180Y035893D03*
X016680Y037393D03*
X014180Y037143D03*
X014180Y035893D03*
X011180Y035143D03*
X010180Y033643D03*
X011680Y032393D03*
X013680Y032393D03*
X014180Y033643D03*
X013180Y030393D03*
X012180Y030393D03*
X008180Y030393D03*
X017180Y030393D03*
X019930Y033143D03*
X021930Y033143D03*
X029743Y034706D03*
X032243Y033893D03*
X033430Y033393D03*
X037430Y033393D03*
X037430Y034143D03*
X041430Y034143D03*
X040930Y023143D03*
X040930Y022081D03*
X039743Y021143D03*
X036930Y022081D03*
X036930Y023143D03*
X032618Y019393D03*
X031555Y019393D03*
X034305Y018331D03*
X035680Y015768D03*
X036930Y015768D03*
X039305Y016393D03*
X032618Y015393D03*
X031555Y015393D03*
X026980Y016643D03*
X024180Y015393D03*
X022430Y015393D03*
X022430Y019393D03*
X023305Y020143D03*
X024180Y019393D03*
X015430Y015768D03*
X016430Y013143D03*
X012430Y013143D03*
X011430Y015768D03*
X010930Y021393D03*
X010930Y023393D03*
X011180Y037143D03*
D17*
X018320Y029893D02*
X019040Y029893D01*
X019040Y028893D02*
X018320Y028893D01*
X018320Y027893D02*
X019040Y027893D01*
X015790Y028143D02*
X015070Y028143D01*
X015070Y027143D02*
X015790Y027143D01*
X015790Y026143D02*
X015070Y026143D01*
X015070Y025143D02*
X015790Y025143D01*
X015790Y024143D02*
X015070Y024143D01*
X015070Y023143D02*
X015790Y023143D01*
X012790Y023143D02*
X012070Y023143D01*
X012070Y024143D02*
X012790Y024143D01*
X012790Y025143D02*
X012070Y025143D01*
X012070Y026143D02*
X012790Y026143D01*
X012790Y027143D02*
X012070Y027143D01*
X012070Y028143D02*
X012790Y028143D01*
X012790Y029143D02*
X012070Y029143D01*
X015070Y029143D02*
X015790Y029143D01*
X009680Y024753D02*
X009680Y024033D01*
X008680Y024033D02*
X008680Y024753D01*
X007680Y024753D02*
X007680Y024033D01*
X007680Y022003D02*
X007680Y021283D01*
X008680Y021283D02*
X008680Y022003D01*
X009680Y022003D02*
X009680Y021283D01*
X017805Y018738D02*
X017805Y018018D01*
X018805Y018018D02*
X018805Y018738D01*
X019805Y018738D02*
X019805Y018018D01*
X019805Y015018D02*
X019805Y014298D01*
X018805Y014298D02*
X018805Y015018D01*
X017805Y015018D02*
X017805Y014298D01*
X028695Y017893D02*
X029415Y017893D01*
X029415Y018893D02*
X028695Y018893D01*
X028695Y019893D02*
X029415Y019893D01*
X029430Y022783D02*
X029430Y023503D01*
X030430Y023503D02*
X030430Y022783D01*
X031430Y022783D02*
X031430Y023503D01*
X032430Y023503D02*
X032430Y022783D01*
X033430Y022783D02*
X033430Y023503D01*
X033430Y025783D02*
X033430Y026503D01*
X032430Y026503D02*
X032430Y025783D01*
X031430Y025783D02*
X031430Y026503D01*
X030430Y026503D02*
X030430Y025783D01*
X029430Y025783D02*
X029430Y026503D01*
X028430Y026503D02*
X028430Y025783D01*
X027430Y025783D02*
X027430Y026503D01*
X025680Y026283D02*
X025680Y027003D01*
X024680Y027003D02*
X024680Y026283D01*
X023680Y026283D02*
X023680Y027003D01*
X027430Y023503D02*
X027430Y022783D01*
X028430Y022783D02*
X028430Y023503D01*
X033820Y017643D02*
X034540Y017643D01*
X034540Y016643D02*
X033820Y016643D01*
X033820Y015643D02*
X034540Y015643D01*
X034930Y030533D02*
X034930Y031253D01*
X033930Y031253D02*
X033930Y030533D01*
X032930Y030533D02*
X032930Y031253D01*
X038570Y031393D02*
X039290Y031393D01*
X039290Y032393D02*
X038570Y032393D01*
X038570Y033393D02*
X039290Y033393D01*
X042570Y033393D02*
X043290Y033393D01*
X043290Y032393D02*
X042570Y032393D01*
X042570Y034393D02*
X043290Y034393D01*
D18*
X037649Y036893D03*
X035680Y036893D03*
X033711Y036893D03*
X030649Y036893D03*
X028680Y036893D03*
X026711Y036893D03*
D19*
X017680Y034393D03*
X017680Y033143D03*
X014680Y033143D03*
X014680Y034393D03*
X024930Y019018D03*
X027930Y019018D03*
D20*
X014993Y031331D03*
X009993Y031331D03*
D21*
X011180Y029143D03*
X011180Y026143D03*
X011930Y017518D03*
X014930Y017518D03*
X016430Y014393D03*
X011430Y014393D03*
X030430Y015393D03*
X030430Y018393D03*
X043180Y015143D03*
X043180Y012143D03*
X042930Y028393D03*
X042930Y031393D03*
D22*
X035743Y023081D03*
X022430Y028393D03*
D23*
X025805Y029018D03*
X023180Y031268D03*
X032555Y029018D03*
X034930Y026893D03*
X037930Y026893D03*
X021680Y021143D03*
X017930Y021143D03*
D24*
X044568Y022978D03*
X049292Y022978D03*
X046930Y019569D03*
X049292Y018781D03*
X044568Y018781D03*
X044568Y013978D03*
X049292Y013978D03*
X049292Y027781D03*
X046930Y028569D03*
X046930Y030468D03*
X049292Y031256D03*
X044568Y031256D03*
X044568Y027781D03*
X044568Y036059D03*
X049292Y036059D03*
D25*
X022180Y035043D02*
X022180Y034243D01*
X021180Y034243D02*
X021180Y035043D01*
X020180Y035043D02*
X020180Y034243D01*
D26*
X033680Y025006D03*
X033680Y024406D03*
X032930Y017443D03*
X032930Y016843D03*
D27*
X032543Y024393D03*
X031943Y024393D03*
X021293Y022643D03*
X020693Y022643D03*
D28*
X025180Y031268D03*
D29*
X007430Y012393D02*
X007430Y011893D01*
X007180Y012143D01*
X007180Y014143D01*
X007430Y014143D01*
X007430Y013643D01*
X009180Y011893D01*
X008680Y011893D01*
X007680Y012893D01*
X007680Y012393D01*
X007930Y012143D01*
X007805Y012018D02*
X028430Y012018D01*
X028305Y011893D01*
X009180Y011893D01*
X008680Y011893D02*
X007430Y011893D01*
X007805Y012018D02*
X007430Y012393D01*
X007430Y013643D01*
X007430Y014143D02*
X007430Y020018D01*
X007305Y020018D01*
X007180Y019893D01*
X007180Y014143D01*
X008960Y014393D02*
X009180Y014423D01*
X009180Y014393D02*
X010555Y013018D01*
X010680Y013018D01*
X012930Y013018D01*
X013430Y013018D01*
X013430Y013393D01*
X013180Y013393D01*
X013430Y013143D01*
X013180Y013393D02*
X012930Y013393D01*
X011680Y013393D01*
X011930Y013143D01*
X010930Y013143D01*
X009680Y014143D01*
X010430Y014143D01*
X011180Y013393D01*
X011180Y013643D01*
X010680Y014143D01*
X010930Y014143D01*
X011430Y014393D01*
X012430Y013143D01*
X012930Y013393D01*
X012930Y013018D02*
X012430Y013143D01*
X011930Y013143D01*
X011680Y013393D02*
X011180Y013893D01*
X011430Y014393D01*
X009180Y014393D01*
X008960Y014393D01*
X010430Y015643D02*
X012180Y015643D01*
X012055Y015643D02*
X012180Y015768D01*
X012180Y016143D01*
X011430Y015768D01*
X012055Y015643D01*
X012180Y016143D02*
X012180Y017643D01*
X010930Y017643D01*
X009680Y016393D01*
X010430Y015643D01*
X011430Y015768D01*
X011930Y017518D01*
X010930Y017143D02*
X010430Y016643D01*
X010430Y016393D01*
X010680Y016143D01*
X010680Y015893D02*
X010930Y015893D01*
X010930Y017143D01*
X010180Y016393D02*
X009680Y016393D01*
X009180Y016393D01*
X010180Y016393D02*
X010680Y015893D01*
X013930Y015143D02*
X014430Y014643D01*
X014680Y014643D01*
X016180Y014643D01*
X016680Y014643D01*
X016680Y014143D01*
X014930Y014143D01*
X014180Y014893D01*
X014180Y017643D01*
X013930Y017393D01*
X013930Y015143D01*
X014430Y015143D02*
X015180Y014393D01*
X015430Y014393D01*
X014680Y014643D02*
X014430Y014893D01*
X014430Y015143D01*
X014430Y016518D01*
X015055Y017143D01*
X014430Y017143D01*
X014430Y016518D01*
X015055Y017143D02*
X015055Y017643D01*
X014430Y017643D01*
X014930Y017518D01*
X014430Y017643D02*
X014180Y017643D01*
X015430Y018643D02*
X009460Y018643D01*
X009180Y018363D01*
X007430Y020018D02*
X018305Y020018D01*
X019680Y021393D01*
X019680Y022893D01*
X019680Y023143D01*
X018930Y023893D01*
X018680Y023893D01*
X018430Y024143D01*
X018430Y024643D01*
X018430Y024893D01*
X018555Y024768D01*
X018430Y024643D01*
X018555Y024768D02*
X019430Y023893D01*
X018680Y024393D01*
X018680Y023893D01*
X019680Y022893D01*
X019680Y023143D02*
X019680Y023643D01*
X019430Y023893D01*
X018930Y023893D01*
X018680Y023843D02*
X018480Y023843D01*
X018430Y023893D01*
X018430Y024143D01*
X018430Y024893D02*
X018430Y025893D01*
X019430Y025143D02*
X020555Y024018D01*
X020555Y022643D01*
X020555Y021018D01*
X018805Y019268D01*
X018805Y018018D01*
X019805Y018018D02*
X019805Y018643D01*
X020305Y019143D01*
X020805Y019143D01*
X019805Y018143D01*
X019805Y018018D01*
X019805Y018643D02*
X019805Y018768D01*
X019805Y018893D01*
X020305Y019393D01*
X022430Y019393D01*
X022180Y019143D01*
X020805Y019143D01*
X020305Y019143D02*
X022430Y019393D01*
X023305Y019893D02*
X023805Y020393D01*
X023805Y020768D01*
X023680Y020893D01*
X022680Y020893D01*
X023305Y020268D01*
X023305Y020581D01*
X022743Y021143D01*
X023555Y021956D01*
X023555Y023018D01*
X023680Y023143D01*
X023680Y021893D01*
X023180Y021893D01*
X022680Y021393D01*
X022430Y021393D01*
X022430Y022643D01*
X022680Y022893D01*
X023180Y022893D01*
X023180Y022393D01*
X022680Y021893D01*
X022680Y022393D01*
X022930Y022643D01*
X023180Y023143D02*
X022430Y023143D01*
X022180Y022893D01*
X022180Y022643D01*
X022180Y021393D01*
X021430Y021393D01*
X021430Y021268D01*
X021618Y021331D01*
X021430Y021393D01*
X021430Y022518D01*
X021430Y024393D01*
X021180Y024643D01*
X023180Y024643D01*
X023680Y025143D01*
X023680Y023643D01*
X023180Y023143D01*
X023680Y023143D02*
X023680Y023643D01*
X023980Y023518D02*
X023930Y023343D01*
X023680Y023143D01*
X024680Y024143D02*
X024805Y024268D01*
X024805Y026518D01*
X024555Y026518D01*
X024555Y024268D01*
X024680Y024143D01*
X024680Y026643D01*
X025680Y026643D02*
X025680Y027393D01*
X025180Y027893D01*
X024930Y028143D01*
X025680Y028893D01*
X025680Y029143D01*
X025805Y029268D01*
X025055Y029268D01*
X024805Y029018D01*
X024805Y028518D01*
X025243Y028956D01*
X025680Y028893D02*
X025805Y029018D01*
X026930Y029518D02*
X026180Y030268D01*
X021430Y030268D01*
X021055Y029893D01*
X021055Y026143D01*
X021118Y026081D01*
X021180Y026143D01*
X021180Y026893D01*
X022180Y026643D02*
X022430Y026643D01*
X022430Y028393D01*
X022680Y028393D02*
X022180Y028393D01*
X022180Y026143D01*
X022430Y026143D01*
X022680Y026393D01*
X022680Y028393D01*
X023680Y028393D02*
X024055Y028393D01*
X024055Y028018D01*
X023930Y027893D01*
X023930Y028143D01*
X023930Y027893D02*
X023805Y027768D01*
X023680Y028393D02*
X023680Y026643D01*
X023680Y025143D01*
X025380Y023518D02*
X025430Y023393D01*
X025430Y023143D01*
X026430Y022143D01*
X026930Y022143D01*
X027430Y022643D01*
X027430Y023393D01*
X028430Y023393D01*
X028430Y022893D01*
X026680Y022893D01*
X026180Y022893D01*
X026430Y023143D02*
X026680Y022893D01*
X026930Y022893D02*
X026930Y022643D01*
X027430Y023143D01*
X028430Y023143D01*
X027430Y023393D02*
X027180Y023393D01*
X027180Y023143D01*
X026430Y022393D01*
X026180Y022393D01*
X025680Y022893D01*
X025930Y023143D01*
X026430Y023143D01*
X026430Y023393D02*
X025430Y023393D01*
X026430Y023393D02*
X027180Y023393D01*
X026930Y022893D02*
X026430Y023393D01*
X026930Y022643D02*
X026430Y022143D01*
X025180Y021643D02*
X025180Y021393D01*
X025430Y021143D01*
X025618Y021331D01*
X026118Y020831D01*
X027180Y020831D01*
X027493Y020518D01*
X027493Y020081D01*
X027305Y019893D01*
X027305Y020143D01*
X026930Y020518D01*
X026618Y020518D01*
X026368Y020768D01*
X025055Y020768D01*
X024993Y020706D01*
X026555Y020706D01*
X026305Y020768D02*
X025305Y020768D01*
X025180Y020893D01*
X026305Y020768D02*
X027180Y019893D01*
X027305Y019893D01*
X026430Y019143D02*
X026430Y018143D01*
X026680Y017643D02*
X026680Y018893D01*
X026430Y019143D01*
X024930Y019143D02*
X024430Y019143D01*
X024430Y017143D01*
X024305Y017143D02*
X024305Y017518D01*
X024930Y017143D01*
X024930Y016643D01*
X025055Y016643D02*
X024305Y017143D01*
X024180Y016893D02*
X024680Y016393D01*
X025430Y016393D01*
X026555Y015268D01*
X026555Y013268D01*
X026680Y013268D01*
X026805Y013393D01*
X026805Y015268D01*
X026680Y015393D01*
X024930Y017143D01*
X024930Y019018D01*
X024555Y019018D01*
X024430Y019143D02*
X024180Y019143D01*
X024180Y019393D01*
X024180Y019143D02*
X024180Y018393D01*
X024805Y019018D01*
X024930Y019018D01*
X024180Y018393D02*
X024180Y016893D01*
X023680Y016393D01*
X023430Y016393D01*
X023305Y016393D01*
X022805Y015893D01*
X022555Y016018D02*
X022555Y015393D01*
X022430Y015393D02*
X022430Y015268D01*
X022930Y015268D01*
X023055Y015393D01*
X023055Y016018D01*
X023430Y016393D01*
X023305Y016393D02*
X022930Y016393D01*
X022555Y016018D01*
X022430Y015893D01*
X022430Y016393D01*
X022305Y016268D01*
X022305Y015518D01*
X022430Y015393D01*
X022430Y015893D01*
X022430Y016393D02*
X022930Y016393D01*
X023680Y016393D02*
X024180Y016393D01*
X024680Y016393D01*
X024180Y016393D02*
X024180Y016893D01*
X024930Y017143D02*
X025430Y016393D01*
X024680Y015518D02*
X024180Y015518D01*
X024180Y015393D01*
X024305Y015268D01*
X024305Y013393D01*
X024420Y013393D02*
X024170Y015383D01*
X024180Y015393D01*
X024055Y015268D01*
X024055Y013893D01*
X024180Y013768D01*
X024180Y013393D01*
X024555Y013768D02*
X024805Y014018D01*
X024805Y015393D01*
X024680Y015518D01*
X026555Y015268D02*
X026680Y015143D01*
X026680Y015393D01*
X026680Y015143D02*
X026680Y013393D01*
X026690Y013393D01*
X028670Y013393D02*
X028680Y013393D01*
X028680Y011893D01*
X031680Y011893D01*
X031930Y011893D01*
X031930Y012018D01*
X031930Y014331D01*
X032743Y015143D01*
X032743Y015268D01*
X032680Y015331D01*
X032680Y015393D01*
X032618Y015393D02*
X032743Y015518D01*
X032493Y015768D01*
X032493Y015018D01*
X032618Y015331D02*
X032618Y015393D01*
X033930Y015643D02*
X033930Y014643D01*
X034180Y014643D02*
X034180Y013893D01*
X033680Y013393D01*
X033180Y012893D01*
X032930Y013893D01*
X034180Y015143D01*
X034180Y015643D01*
X034430Y015393D01*
X034430Y015143D01*
X034180Y014893D01*
X034180Y014643D01*
X034180Y014893D02*
X034180Y015143D01*
X035430Y015643D02*
X035430Y016143D01*
X034930Y016643D01*
X035555Y016268D01*
X035680Y016393D01*
X035805Y016393D01*
X035805Y015643D01*
X035680Y015518D01*
X035555Y015518D01*
X035430Y015643D01*
X035680Y015768D02*
X035680Y015518D01*
X035680Y015768D02*
X035680Y015893D01*
X035430Y016143D01*
X035680Y016393D02*
X035680Y015768D01*
X035805Y016393D02*
X035555Y016643D01*
X034930Y016643D01*
X034180Y016643D01*
X034930Y016643D02*
X035805Y016393D01*
X036680Y016393D02*
X036680Y016643D01*
X036930Y016643D01*
X037180Y016393D01*
X037180Y015643D01*
X036930Y015768D01*
X036930Y015643D01*
X035180Y013893D01*
X035190Y013903D02*
X036930Y015393D01*
X037180Y015643D01*
X036930Y015768D02*
X036930Y016393D01*
X037180Y016393D01*
X036930Y016393D02*
X036680Y016393D01*
X036680Y015143D01*
X035430Y013893D01*
X035430Y012893D01*
X035180Y013393D01*
X035190Y013393D02*
X035190Y013903D01*
X033680Y013393D02*
X032930Y013393D01*
X032920Y013393D01*
X031930Y012018D02*
X028430Y012018D01*
X028305Y011893D02*
X028680Y011893D01*
X029680Y015393D02*
X029180Y015893D01*
X029180Y016593D01*
X028380Y016643D01*
X029180Y016693D01*
X029055Y017893D01*
X029805Y018768D02*
X030055Y018893D01*
X029743Y018893D01*
X030555Y018081D01*
X030680Y018081D01*
X030680Y018518D01*
X030368Y018831D01*
X030430Y018643D02*
X030430Y018393D01*
X029743Y018893D02*
X029680Y018893D01*
X029180Y018893D01*
X029055Y018893D01*
X028930Y020143D02*
X029618Y020143D01*
X030368Y020956D02*
X030493Y020956D01*
X030555Y020956D01*
X030430Y021018D01*
X030368Y021268D01*
X030180Y021143D02*
X030368Y020956D01*
X030180Y021143D02*
X029930Y021393D01*
X029430Y021893D01*
X029430Y023143D01*
X030430Y023143D02*
X030430Y022143D01*
X030430Y023143D02*
X030430Y024143D01*
X029930Y024643D01*
X030930Y024643D01*
X031430Y025143D01*
X031430Y026143D01*
X031430Y026893D01*
X031430Y028143D01*
X032180Y027393D01*
X033930Y027393D01*
X034680Y026643D01*
X034930Y026643D01*
X035180Y026893D01*
X035180Y027143D01*
X034930Y027393D01*
X034430Y027393D01*
X034930Y026893D01*
X034430Y027393D02*
X033930Y027393D01*
X033805Y028268D02*
X035055Y028393D01*
X035180Y028268D01*
X033305Y028268D01*
X032618Y028268D01*
X032430Y028456D01*
X032430Y029018D01*
X032555Y029018D02*
X032680Y029143D01*
X033180Y028643D01*
X033305Y028268D01*
X033180Y028393D02*
X032680Y028893D01*
X033180Y028643D02*
X034805Y028643D01*
X035055Y028393D01*
X035180Y028268D02*
X036055Y027393D01*
X036055Y026018D01*
X036055Y025768D01*
X035680Y025393D01*
X034680Y025393D01*
X034430Y025643D01*
X033930Y026143D01*
X033430Y026143D01*
X034430Y025643D02*
X035680Y025643D01*
X036055Y026018D01*
X036930Y026393D02*
X036930Y025018D01*
X037555Y024393D01*
X037930Y024018D01*
X037930Y024518D01*
X037805Y024518D01*
X037180Y025143D01*
X037180Y025643D01*
X037680Y025143D01*
X037680Y024643D01*
X037555Y024393D01*
X037805Y024518D01*
X037930Y024518D02*
X037930Y025393D01*
X036930Y026393D01*
X036930Y027768D01*
X035055Y029643D01*
X033555Y029643D01*
X032930Y030268D01*
X032305Y030893D01*
X031993Y031018D02*
X031930Y030893D01*
X031680Y031393D02*
X032930Y031393D01*
X032930Y031143D01*
X032930Y030893D02*
X032930Y030268D01*
X032930Y030893D02*
X032680Y030893D01*
X031430Y031643D01*
X030430Y032643D01*
X030430Y032393D02*
X030930Y031893D01*
X031430Y031643D02*
X030055Y031643D01*
X030005Y031393D01*
X030430Y031393D02*
X030430Y032393D01*
X030930Y032643D02*
X030930Y033393D01*
X030680Y033143D01*
X030555Y033018D02*
X030930Y032643D01*
X032680Y030893D01*
X031930Y030143D02*
X031055Y030143D01*
X030930Y030143D01*
X030055Y029268D01*
X030055Y028518D01*
X030180Y028393D01*
X030180Y029143D01*
X030305Y029268D01*
X029805Y029393D02*
X029680Y029268D01*
X029680Y028268D01*
X029805Y028143D01*
X030430Y028143D01*
X030680Y028393D01*
X030680Y029768D01*
X031055Y030143D01*
X030930Y030143D02*
X030555Y030143D01*
X029805Y029393D01*
X029805Y028268D01*
X029680Y028268D02*
X029680Y028143D01*
X028430Y027143D02*
X029430Y026143D01*
X028430Y026143D01*
X028430Y026643D01*
X028680Y026393D01*
X029430Y026393D01*
X028430Y026643D02*
X028430Y026893D01*
X028430Y027143D01*
X028055Y027518D01*
X028055Y030018D01*
X028055Y030893D01*
X028555Y031643D01*
X028555Y031393D01*
X028055Y030893D01*
X027930Y030768D01*
X027930Y029393D01*
X028055Y030018D01*
X027930Y029393D02*
X027930Y027393D01*
X028430Y026893D01*
X027430Y026393D02*
X027430Y026143D01*
X027430Y025581D01*
X028368Y024643D01*
X029930Y024643D01*
X030430Y024143D02*
X030930Y024643D01*
X033430Y023143D02*
X033430Y022206D01*
X033368Y022143D01*
X032368Y022143D02*
X032368Y022081D01*
X033430Y023143D02*
X033618Y023143D01*
X034305Y022456D01*
X034305Y022331D01*
X034930Y021518D02*
X035555Y021518D01*
X035555Y020893D01*
X034930Y020893D01*
X034930Y021518D01*
X035243Y019893D02*
X035493Y019643D01*
X036493Y019643D01*
X036680Y019893D01*
X036430Y019893D01*
X035680Y019893D01*
X035680Y019768D01*
X035493Y019643D01*
X035680Y019768D02*
X036930Y019768D01*
X036930Y019643D01*
X037055Y019643D01*
X037055Y023518D01*
X037055Y023643D01*
X036930Y023643D01*
X037055Y023518D01*
X036930Y023643D02*
X036680Y023643D01*
X036180Y023143D01*
X035930Y022893D01*
X036180Y022893D01*
X036930Y022143D01*
X036930Y022081D01*
X036930Y021643D01*
X036930Y020393D01*
X036930Y019893D01*
X036680Y019893D01*
X036430Y019893D02*
X036930Y020393D01*
X036930Y019893D02*
X036930Y019768D01*
X036930Y019643D02*
X036493Y019643D01*
X035680Y019893D02*
X035243Y019893D01*
X037930Y020143D02*
X038180Y019893D01*
X038493Y019581D01*
X038493Y019393D01*
X038480Y019381D01*
X038480Y019143D01*
X038493Y019081D02*
X038493Y019393D01*
X038493Y019081D02*
X038493Y018143D01*
X038930Y017893D01*
X039305Y017518D01*
X039680Y017143D01*
X039680Y016393D01*
X039305Y016018D01*
X039305Y016393D01*
X039305Y017518D01*
X039180Y017393D02*
X039180Y015893D01*
X039305Y016018D01*
X039180Y015893D02*
X037180Y013893D01*
X037170Y013893D01*
X037170Y013393D01*
X039368Y013893D02*
X039368Y014768D01*
X039868Y015268D01*
X041805Y015268D01*
X042180Y015643D01*
X041680Y015143D02*
X043680Y017143D01*
X043680Y017893D01*
X043180Y018393D01*
X043180Y020143D01*
X043180Y020643D01*
X044680Y022143D01*
X044680Y023393D01*
X044180Y023393D01*
X043430Y022643D01*
X043430Y022143D01*
X044180Y022893D01*
X044180Y022643D01*
X044430Y022393D01*
X043430Y021393D01*
X043180Y021590D02*
X043180Y020643D01*
X044180Y019893D02*
X044568Y020281D01*
X044568Y018781D01*
X044568Y015143D01*
X043180Y015143D01*
X043055Y015143D01*
X043055Y015018D01*
X044305Y013768D01*
X044305Y014893D01*
X044430Y015018D01*
X043555Y015018D01*
X044180Y014393D01*
X044180Y014143D01*
X044680Y013643D01*
X045055Y014018D01*
X045055Y014768D01*
X044555Y015268D01*
X044555Y015018D01*
X044930Y014643D01*
X044930Y020643D01*
X044568Y020281D01*
X044930Y020643D02*
X045680Y021393D01*
X045680Y024143D01*
X045180Y024643D01*
X044680Y024643D01*
X044430Y024893D01*
X044430Y025393D01*
X045180Y024643D01*
X045680Y024643D02*
X045680Y024143D01*
X045680Y024643D02*
X044430Y025893D01*
X044430Y026393D01*
X044680Y026393D01*
X044430Y026393D02*
X045680Y025143D01*
X045680Y024643D01*
X045680Y025143D02*
X045680Y025768D01*
X044305Y027143D01*
X043805Y027143D01*
X043680Y027268D01*
X044055Y027268D01*
X044305Y027518D01*
X044680Y027143D01*
X044930Y026893D02*
X045680Y026143D01*
X045680Y025768D01*
X045680Y026143D02*
X045680Y026643D01*
X044568Y027756D01*
X044568Y027781D01*
X044542Y027781D01*
X044680Y028143D02*
X044305Y028143D01*
X043555Y027393D01*
X043430Y027393D01*
X042430Y027393D01*
X041930Y027893D01*
X041930Y029393D01*
X040180Y031143D01*
X040180Y035643D01*
X040430Y035893D01*
X040430Y036633D01*
X040440Y036643D01*
X042420Y036643D02*
X042680Y036893D01*
X043430Y037643D01*
X045180Y037643D01*
X046180Y036643D01*
X046180Y034018D01*
X045680Y033518D01*
X045680Y031143D01*
X045680Y030518D01*
X045180Y030018D01*
X043555Y030018D01*
X043180Y029643D01*
X043430Y029393D01*
X044430Y029393D01*
X044680Y029643D01*
X044180Y029643D01*
X043680Y029143D01*
X043555Y029018D01*
X043680Y029018D01*
X043805Y028893D01*
X045555Y028893D01*
X045680Y029018D01*
X045680Y029393D01*
X045555Y029518D01*
X044680Y029518D01*
X044430Y029268D01*
X045305Y029268D01*
X045430Y029143D01*
X044805Y029143D01*
X045680Y028268D01*
X045680Y027893D01*
X046555Y027018D01*
X046555Y020768D01*
X046430Y020643D01*
X046430Y020393D01*
X046430Y019393D01*
X047430Y019393D01*
X047430Y019643D01*
X046680Y020393D01*
X046680Y020643D02*
X046430Y020393D01*
X046680Y020643D02*
X047430Y019893D01*
X047430Y019643D01*
X046930Y019569D02*
X046555Y019944D01*
X046555Y020768D01*
X047430Y021268D02*
X048180Y020518D01*
X048180Y015643D01*
X045180Y012643D01*
X044180Y012643D01*
X043430Y013393D01*
X042180Y013393D01*
X041680Y012893D01*
X041430Y012893D01*
X041430Y013893D01*
X042930Y013893D01*
X043430Y013393D01*
X044568Y013978D02*
X044568Y015143D01*
X044180Y015268D02*
X044555Y015643D01*
X043555Y015643D01*
X043055Y015143D01*
X043055Y015268D01*
X044430Y016643D01*
X044430Y016143D01*
X043555Y015268D01*
X044180Y015268D01*
X044430Y016643D02*
X044430Y018643D01*
X044180Y018893D01*
X044180Y019893D01*
X043180Y020143D02*
X044930Y021893D01*
X044930Y023393D01*
X044680Y023643D01*
X043930Y023643D01*
X043180Y022893D01*
X043180Y021590D01*
X044568Y022978D01*
X043430Y022143D02*
X043430Y021893D01*
X041930Y022581D02*
X041805Y022456D01*
X041430Y022081D01*
X040930Y022081D01*
X040680Y021831D01*
X040680Y021268D01*
X040680Y020456D01*
X040680Y019943D01*
X039880Y019143D01*
X038430Y018393D02*
X038430Y017956D01*
X039368Y017018D01*
X038430Y016518D02*
X037305Y017643D01*
X037180Y017643D01*
X037993Y016831D01*
X037993Y016018D01*
X038180Y016018D01*
X038430Y016268D01*
X038430Y016518D01*
X038368Y016518D02*
X038305Y016518D01*
X037993Y016831D01*
X038305Y016518D02*
X038305Y016393D01*
X036930Y015768D02*
X036930Y015393D01*
X036680Y015143D01*
X039440Y014653D02*
X039440Y013393D01*
X039430Y013393D02*
X039430Y013768D01*
X039368Y013893D01*
X039440Y014653D02*
X039930Y015143D01*
X041680Y015143D01*
X041420Y013393D02*
X042180Y013393D01*
X042680Y012393D02*
X042430Y012143D01*
X042430Y011893D01*
X043430Y011893D01*
X043680Y011893D01*
X043430Y012143D01*
X043180Y012393D01*
X042680Y012393D01*
X043180Y012143D02*
X043430Y012143D01*
X043180Y012143D02*
X043430Y011893D01*
X043680Y011893D02*
X045680Y011893D01*
X047430Y011893D01*
X048180Y012643D01*
X048180Y014393D01*
X046180Y012393D01*
X046430Y012143D01*
X046930Y012143D01*
X047930Y013143D01*
X047930Y013643D01*
X046680Y012393D01*
X046930Y012143D02*
X047180Y012143D01*
X047930Y012893D01*
X047930Y013143D01*
X046180Y012393D02*
X045680Y011893D01*
X048180Y014393D02*
X048930Y015143D01*
X048930Y020893D01*
X048305Y021518D01*
X048305Y023893D01*
X048305Y024518D01*
X049555Y025768D01*
X049555Y027518D01*
X049680Y027643D01*
X049680Y027393D01*
X048430Y026143D01*
X048430Y025393D01*
X048680Y025143D01*
X048680Y025393D01*
X049430Y026143D01*
X049430Y026643D01*
X048680Y025893D01*
X048680Y025393D01*
X048305Y024518D02*
X048305Y026518D01*
X048305Y029768D01*
X047930Y030143D01*
X048055Y030143D01*
X048805Y029393D01*
X048805Y027143D01*
X048680Y027018D01*
X048680Y028893D01*
X049180Y029393D01*
X049680Y028893D01*
X049680Y027643D01*
X049680Y027393D02*
X049680Y025268D01*
X048305Y023893D01*
X048305Y026518D02*
X049180Y027393D01*
X049180Y027794D01*
X049292Y027781D01*
X049180Y027893D01*
X049180Y029393D01*
X048105Y030468D01*
X046930Y030468D01*
X047180Y030143D02*
X047930Y030143D01*
X049118Y030893D02*
X047868Y032143D01*
X048180Y032143D01*
X048930Y031393D01*
X049180Y031643D02*
X049292Y031531D01*
X049292Y031256D01*
X049430Y031143D02*
X049180Y030893D01*
X049118Y030893D01*
X049430Y031143D02*
X049430Y031893D01*
X046180Y031893D01*
X045930Y031643D01*
X046180Y031643D01*
X046930Y032393D01*
X048180Y032393D01*
X048430Y032143D01*
X048180Y032643D02*
X047430Y032643D01*
X047180Y032643D01*
X046930Y032393D01*
X047430Y032643D02*
X047430Y035393D01*
X049430Y033393D01*
X049430Y032893D01*
X047680Y034643D01*
X047680Y034143D01*
X049180Y032643D01*
X049180Y032143D01*
X047680Y033643D01*
X047680Y033143D01*
X047930Y032893D01*
X048430Y032893D01*
X049430Y031893D01*
X049430Y032893D01*
X049180Y032143D02*
X049180Y031643D01*
X048180Y032643D01*
X047180Y032893D02*
X046180Y031893D01*
X046180Y031643D02*
X045680Y031143D01*
X045680Y030518D02*
X045680Y029643D01*
X044680Y029643D01*
X044430Y029393D02*
X043305Y028268D01*
X043055Y028268D01*
X042930Y028268D01*
X042805Y028393D01*
X042805Y029268D01*
X043180Y029643D01*
X043680Y029643D01*
X043680Y029143D01*
X043555Y029018D02*
X043180Y028643D01*
X043180Y028393D01*
X043055Y028268D01*
X042930Y028268D02*
X042930Y028393D01*
X042930Y028893D01*
X043680Y029643D01*
X044180Y029643D01*
X044680Y029143D02*
X044805Y029143D01*
X045680Y029018D02*
X045680Y028268D01*
X044930Y027893D02*
X044930Y026893D01*
X044430Y026393D02*
X043430Y027393D01*
X044680Y028143D02*
X044930Y027893D01*
X046680Y028143D02*
X046930Y027893D01*
X047430Y027393D01*
X047430Y028518D01*
X047305Y028643D01*
X047180Y028643D01*
X046930Y028569D02*
X046930Y027893D01*
X047430Y027393D02*
X047430Y021268D01*
X048930Y020893D02*
X049292Y020531D01*
X049680Y020143D01*
X049680Y015893D01*
X049292Y015506D01*
X049292Y018781D01*
X049292Y020531D01*
X044430Y018768D02*
X044430Y018643D01*
X039743Y021143D02*
X039243Y021331D01*
X038930Y021643D01*
X038930Y022456D01*
X038930Y028518D01*
X034805Y032643D01*
X034805Y036018D01*
X035680Y036893D01*
X037180Y037893D02*
X038180Y037893D01*
X037680Y037393D01*
X037680Y037143D01*
X037680Y036893D01*
X037649Y036893D02*
X037649Y037893D01*
X037649Y037925D01*
X037430Y035393D02*
X036180Y035393D01*
X035680Y034893D01*
X035680Y034143D01*
X036180Y033643D01*
X038430Y033643D01*
X038680Y033893D01*
X037430Y035143D01*
X036430Y035143D01*
X035930Y034643D01*
X037680Y034643D01*
X037930Y034393D01*
X036180Y034393D01*
X036180Y034143D02*
X035930Y034393D01*
X036680Y034393D01*
X037180Y033893D01*
X037430Y034143D02*
X037430Y033393D01*
X035680Y034143D01*
X035680Y033893D01*
X036180Y033393D01*
X038930Y033393D01*
X038930Y034893D01*
X038430Y035393D01*
X038180Y035393D01*
X038680Y034893D01*
X038680Y034643D01*
X038180Y035143D01*
X038180Y035393D02*
X037430Y035393D01*
X038680Y034143D01*
X037430Y034143D01*
X036180Y034143D01*
X033680Y033893D02*
X033305Y033893D01*
X033305Y033768D01*
X033305Y033643D01*
X033430Y033768D01*
X033430Y033518D01*
X033305Y032893D01*
X033305Y032518D01*
X033555Y032268D01*
X033305Y032268D01*
X033305Y032518D01*
X033305Y032268D02*
X033680Y031893D01*
X033930Y031643D01*
X033430Y032268D01*
X033305Y033143D01*
X033305Y032893D01*
X033305Y033143D02*
X033305Y033643D01*
X033305Y033768D02*
X033680Y033893D01*
X033680Y031893D01*
X033930Y031643D02*
X033930Y030893D01*
X034930Y030893D02*
X034930Y030643D01*
X034930Y030768D02*
X035305Y030768D01*
X037680Y028393D01*
X037680Y026768D01*
X037805Y026643D01*
X037930Y026643D01*
X037930Y026893D01*
X037930Y028143D01*
X038180Y027893D01*
X038180Y026768D01*
X037180Y025768D02*
X037180Y025643D01*
X037930Y024018D02*
X037930Y020143D01*
X036930Y022081D02*
X036930Y022893D01*
X036180Y022893D01*
X036180Y022643D02*
X036680Y022643D01*
X036930Y022893D02*
X036930Y023143D01*
X036680Y023143D02*
X036180Y023143D01*
X035930Y022893D02*
X035743Y023081D01*
X039930Y024393D02*
X039930Y028893D01*
X039805Y029018D01*
X037430Y031393D01*
X036680Y032143D01*
X036680Y032393D01*
X036930Y032393D01*
X037180Y032393D01*
X037180Y031893D01*
X037430Y032143D01*
X037680Y032393D01*
X037180Y032393D01*
X036930Y032393D02*
X036680Y032143D01*
X037430Y032143D02*
X037430Y031393D01*
X037680Y032393D02*
X038930Y032393D01*
X038930Y031393D02*
X038930Y031143D01*
X040930Y029143D01*
X040930Y024643D01*
X041930Y023643D01*
X041930Y022581D01*
X040930Y023143D02*
X039930Y024393D01*
X044430Y025393D02*
X044430Y025893D01*
X045680Y029393D02*
X045680Y029643D01*
X044456Y031143D02*
X044568Y031256D01*
X044555Y031268D02*
X043430Y032393D01*
X041930Y032393D01*
X041430Y031893D01*
X041430Y031393D01*
X042930Y031393D01*
X042930Y032393D01*
X041305Y032393D01*
X041055Y032143D01*
X041055Y031518D01*
X041430Y031143D01*
X044430Y031143D01*
X044555Y031268D01*
X044456Y031143D02*
X044180Y031393D01*
X043930Y031393D01*
X043680Y031643D01*
X041680Y031643D01*
X041680Y031893D01*
X041930Y032143D01*
X043180Y032143D01*
X043430Y031893D01*
X042930Y031393D02*
X043930Y031393D01*
X045930Y031643D02*
X045930Y032143D01*
X046930Y033143D01*
X046930Y036393D01*
X046430Y036393D01*
X046430Y033643D01*
X045930Y033143D01*
X045930Y032643D01*
X046430Y033143D01*
X046430Y033643D01*
X047180Y032893D02*
X047180Y036393D01*
X046680Y036893D01*
X046180Y037393D01*
X045930Y037393D02*
X046680Y036643D01*
X046680Y036893D01*
X047430Y036643D02*
X047430Y037143D01*
X046930Y037643D01*
X045680Y038893D01*
X025180Y038893D01*
X024930Y038893D01*
X023930Y037893D01*
X023930Y037643D01*
X024180Y037643D01*
X024430Y037893D01*
X024430Y038143D01*
X025180Y038893D01*
X024930Y038893D02*
X024430Y038143D01*
X024180Y037893D01*
X023930Y037893D01*
X023680Y037893D01*
X023180Y038393D01*
X021180Y038393D01*
X020180Y037393D01*
X020230Y037393D01*
X020180Y037393D02*
X019680Y037643D01*
X020180Y037143D01*
X020180Y037268D01*
X021430Y038518D01*
X021180Y038393D02*
X020930Y038393D01*
X021430Y038893D01*
X022430Y038893D01*
X022930Y038893D01*
X023430Y038393D01*
X023180Y038393D01*
X023430Y038393D02*
X023680Y038143D01*
X024180Y037893D01*
X023930Y037643D01*
X023680Y037893D01*
X023680Y038143D01*
X024430Y038143D01*
X025243Y037456D02*
X025243Y037206D01*
X025243Y036206D01*
X024680Y035643D01*
X024430Y035643D01*
X024180Y035643D01*
X023680Y035643D01*
X021930Y037393D01*
X021805Y037393D01*
X021180Y036768D01*
X021180Y035893D01*
X020930Y036143D01*
X020930Y036893D01*
X021180Y037143D01*
X021380Y037143D01*
X021430Y037143D01*
X021430Y036143D01*
X021180Y035893D01*
X021180Y034643D01*
X021180Y033893D01*
X020805Y033518D01*
X020430Y033143D01*
X019930Y033143D01*
X019930Y032893D01*
X018930Y031893D01*
X018680Y031893D01*
X019180Y031643D01*
X018430Y031643D01*
X018555Y031518D01*
X020180Y031518D01*
X019680Y031643D01*
X018930Y031643D01*
X018805Y031393D01*
X020055Y030143D01*
X019930Y030893D01*
X019430Y031393D01*
X019180Y031643D02*
X019180Y031893D01*
X019680Y031893D01*
X019930Y032143D01*
X019680Y032143D01*
X019680Y031893D02*
X019930Y031893D01*
X019930Y032143D01*
X019930Y032393D01*
X020430Y032893D01*
X020430Y032643D01*
X020180Y032393D01*
X019930Y032393D02*
X019930Y032893D01*
X020430Y033143D02*
X020680Y032893D01*
X020680Y032143D01*
X020805Y032143D02*
X020680Y032893D01*
X020680Y032268D02*
X020805Y032143D01*
X020805Y033518D01*
X021680Y033268D02*
X021930Y033518D01*
X021930Y033393D01*
X021680Y033143D01*
X021680Y033268D01*
X021680Y033143D02*
X021680Y032643D01*
X021930Y032393D01*
X023680Y032393D01*
X025180Y030893D01*
X025930Y030893D01*
X025680Y031143D01*
X026180Y031143D01*
X027430Y032393D01*
X028118Y033081D01*
X028118Y033831D01*
X028180Y033893D01*
X028243Y033893D02*
X028180Y033143D01*
X028118Y033081D01*
X028180Y033143D02*
X028180Y032893D01*
X027680Y032393D01*
X027430Y032143D01*
X026930Y031643D01*
X026680Y030893D01*
X026180Y030393D01*
X026305Y030768D01*
X026680Y029893D01*
X026680Y030268D01*
X026805Y030143D01*
X026805Y026643D01*
X026805Y026206D01*
X027430Y025581D01*
X027430Y026143D02*
X027305Y026143D01*
X026805Y026643D01*
X026930Y026643D02*
X026930Y029518D01*
X026930Y030143D01*
X026680Y029893D01*
X026430Y030393D01*
X025930Y030893D01*
X026180Y030893D01*
X025805Y031268D01*
X025180Y031268D01*
X025180Y031393D02*
X026680Y031393D01*
X026180Y030893D02*
X026180Y030393D01*
X026180Y030893D02*
X025680Y031143D01*
X023930Y032893D01*
X023680Y032893D01*
X022180Y032893D01*
X021930Y032643D01*
X023930Y032643D01*
X025180Y031393D01*
X023930Y032893D02*
X023680Y033143D01*
X022430Y033143D01*
X022180Y033393D01*
X022180Y033768D01*
X021930Y033518D01*
X021930Y033393D02*
X021930Y033143D01*
X022430Y033143D01*
X022180Y033768D02*
X022180Y033893D01*
X022180Y034643D01*
X023618Y034643D02*
X023618Y034143D01*
X023680Y034143D01*
X023680Y034643D01*
X023618Y034643D01*
X023680Y034643D02*
X024118Y034643D01*
X024180Y034393D01*
X023930Y034143D01*
X023680Y034143D02*
X024368Y034143D01*
X024368Y034643D01*
X024118Y034643D01*
X024180Y035643D02*
X024180Y035893D01*
X023680Y035893D01*
X023680Y035643D01*
X022180Y037393D01*
X021930Y037393D01*
X021805Y037393D02*
X021630Y037393D01*
X021380Y037143D01*
X021430Y037143D02*
X021430Y037268D01*
X022555Y037268D01*
X023680Y036143D01*
X024180Y036143D01*
X025243Y037206D01*
X024930Y036393D01*
X024930Y036143D01*
X024430Y035643D01*
X024430Y035893D02*
X024180Y035893D01*
X024430Y035893D02*
X024930Y036393D01*
X023680Y035893D02*
X023430Y035893D01*
X022680Y036643D01*
X022555Y037268D01*
X022180Y037643D01*
X021680Y037643D01*
X021430Y037393D01*
X021180Y037143D01*
X021180Y036768D01*
X021430Y037268D02*
X021430Y037393D01*
X021630Y037393D01*
X020930Y038393D02*
X020430Y037893D01*
X018680Y037893D01*
X018430Y037643D01*
X018430Y037393D01*
X019180Y036643D01*
X019180Y035643D01*
X019180Y035393D01*
X018180Y034393D01*
X018180Y033893D01*
X018430Y033643D01*
X018430Y034143D01*
X018930Y034643D01*
X018930Y034143D01*
X018680Y033893D01*
X018180Y033893D02*
X018180Y033143D01*
X017930Y032893D01*
X018180Y032893D01*
X019180Y033893D01*
X019180Y035393D01*
X019180Y035643D02*
X018430Y034893D01*
X017680Y034893D01*
X017930Y034643D01*
X018180Y034643D01*
X018180Y034393D01*
X017930Y034643D02*
X017930Y032893D01*
X017680Y032893D01*
X017430Y033143D01*
X017430Y034643D01*
X017680Y034893D01*
X017680Y034393D01*
X017680Y033143D01*
X017930Y032893D01*
X017930Y031643D02*
X019180Y030393D01*
X019680Y029893D01*
X019430Y029893D01*
X018430Y030893D01*
X018180Y031143D02*
X017680Y031643D01*
X016430Y032893D01*
X016430Y032393D01*
X016930Y031893D01*
X018680Y031893D01*
X018430Y031643D01*
X017930Y031643D01*
X017680Y031643D01*
X016930Y031643D01*
X016805Y031643D01*
X015180Y031643D01*
X014993Y031331D01*
X014180Y032143D01*
X014930Y032143D01*
X016180Y032143D01*
X016180Y032893D01*
X015180Y031893D01*
X014993Y031331D01*
X014930Y032143D01*
X015180Y031893D02*
X016180Y031893D01*
X016930Y031893D01*
X016430Y032143D02*
X016430Y032393D01*
X016430Y032143D02*
X016180Y032143D01*
X016430Y035143D01*
X016430Y032893D01*
X016180Y032893D02*
X016180Y035143D01*
X017180Y036143D01*
X017430Y036143D01*
X017430Y036393D01*
X017180Y036643D01*
X017180Y036393D01*
X016430Y035643D01*
X016680Y035393D01*
X016430Y035143D01*
X016180Y035143D02*
X016180Y036143D01*
X016180Y036893D01*
X017430Y036893D01*
X016930Y037393D01*
X016680Y037643D01*
X014680Y037643D01*
X014180Y037643D01*
X014055Y037518D01*
X014055Y037018D01*
X015555Y037018D01*
X015680Y037143D01*
X015930Y037143D01*
X016180Y036893D02*
X015180Y037143D01*
X014180Y037143D01*
X014680Y037643D01*
X014680Y037393D02*
X014180Y037143D01*
X014680Y037393D02*
X016680Y037393D01*
X016930Y037393D01*
X017430Y036893D02*
X018180Y036143D01*
X018180Y035893D01*
X018055Y036018D02*
X017430Y036393D01*
X017430Y036893D01*
X016930Y036643D02*
X016680Y036643D01*
X016430Y036393D01*
X016430Y036143D01*
X016930Y036643D01*
X016430Y036143D02*
X016430Y035643D01*
X016680Y035393D02*
X017305Y036018D01*
X018055Y036018D01*
X019180Y036643D02*
X019180Y036893D01*
X018680Y037393D01*
X019680Y037643D01*
X019180Y037143D01*
X018680Y037393D01*
X019180Y037143D02*
X019180Y036893D01*
X020180Y037143D02*
X020180Y034643D01*
X020805Y032143D02*
X021305Y031643D01*
X021180Y031643D01*
X019930Y030393D01*
X019930Y030143D01*
X019680Y029893D02*
X020180Y029393D01*
X020180Y031518D01*
X023055Y031518D01*
X023180Y031393D01*
X023180Y031268D01*
X023180Y031143D02*
X023180Y031018D01*
X023055Y031018D01*
X022805Y031268D01*
X020055Y031268D01*
X020305Y031018D01*
X023055Y031018D01*
X021180Y031643D02*
X020930Y031643D01*
X020680Y031893D01*
X020805Y032143D02*
X020180Y031893D01*
X019930Y031893D01*
X019180Y031893D02*
X018930Y031893D01*
X018180Y031143D02*
X018180Y030393D01*
X018180Y029893D01*
X019430Y029893D01*
X019180Y030393D02*
X018180Y030393D01*
X018680Y029893D01*
X020180Y029393D02*
X020180Y025643D01*
X021180Y024643D01*
X021305Y025893D02*
X021118Y026081D01*
X019430Y025143D02*
X019430Y027143D01*
X019430Y027893D01*
X018680Y027893D01*
X015930Y026143D02*
X015680Y026143D01*
X015430Y026143D01*
X012430Y025143D02*
X012430Y024143D01*
X012430Y023143D01*
X017680Y022143D02*
X017680Y021143D01*
X017680Y020893D01*
X017930Y021143D02*
X017930Y022143D01*
X018180Y022393D01*
X017930Y022393D01*
X017680Y022143D01*
X018180Y022393D02*
X018630Y022393D01*
X018680Y022443D01*
X018680Y022393D02*
X018305Y022018D01*
X018305Y021518D01*
X018180Y021393D01*
X021430Y021268D02*
X021430Y020893D01*
X022305Y020893D01*
X023305Y019893D01*
X023305Y020143D01*
X023430Y020143D01*
X023305Y020143D02*
X023305Y020268D01*
X023305Y020581D02*
X023555Y021143D01*
X022743Y021143D01*
X022180Y021143D01*
X021430Y020893D01*
X021680Y021143D02*
X021430Y021268D01*
X022180Y021393D02*
X022180Y021143D01*
X022305Y020893D02*
X022680Y020893D01*
X023555Y021143D02*
X023555Y021956D01*
X023305Y019893D02*
X023305Y017581D01*
X023118Y017393D01*
X021430Y017393D01*
X021930Y017893D01*
X022680Y017893D01*
X023180Y018393D01*
X023180Y017893D01*
X022930Y017643D01*
X022180Y017643D01*
X021430Y016893D01*
X021430Y014268D01*
X022055Y013643D01*
X022180Y013393D02*
X022180Y012893D01*
X021680Y012893D01*
X021430Y013143D01*
X021430Y013393D01*
X021430Y014268D01*
X021680Y013893D02*
X021680Y013643D01*
X021430Y013393D02*
X022180Y013393D01*
X022440Y013393D01*
X019805Y013768D02*
X019305Y013268D01*
X016305Y013268D01*
X016305Y013018D01*
X016430Y013018D01*
X019055Y013018D01*
X019180Y013143D01*
X019305Y013268D01*
X019180Y013143D02*
X016430Y013143D01*
X016430Y013018D01*
X016430Y014393D02*
X016180Y014643D01*
X017180Y015643D02*
X017805Y015018D01*
X017180Y015643D02*
X016680Y015643D01*
X016180Y015643D01*
X015930Y015893D01*
X015680Y015893D01*
X015555Y016018D01*
X015430Y015768D02*
X015305Y015643D01*
X015305Y016143D01*
X015430Y016268D01*
X016055Y016268D01*
X016680Y015643D01*
X016180Y015643D02*
X015305Y015643D01*
X017555Y016518D02*
X019305Y016518D01*
X019805Y016018D01*
X019805Y015018D01*
X019805Y013768D01*
X021430Y016893D02*
X021430Y017393D01*
X019930Y018893D02*
X019805Y018768D01*
X019930Y018893D02*
X020305Y019143D01*
X017555Y016518D02*
X015430Y018643D01*
X010930Y013143D02*
X010680Y013018D01*
X029680Y015393D02*
X030430Y015393D01*
X030555Y016706D02*
X030555Y017206D01*
X031805Y017206D01*
X031805Y016706D01*
X030555Y016706D01*
X034180Y017643D02*
X037118Y017643D01*
X037180Y017643D01*
X048930Y015143D02*
X049292Y015506D01*
X031930Y027393D02*
X031430Y026893D01*
X031930Y027393D02*
X032180Y027393D01*
X031430Y028143D02*
X031430Y029518D01*
X031430Y029643D01*
X031930Y030143D01*
X031993Y030018D02*
X031430Y029518D01*
X031180Y030893D02*
X030930Y030893D01*
X030430Y031393D01*
X028605Y031393D02*
X028555Y031643D01*
X027930Y031018D01*
X027930Y030768D01*
X027430Y032143D02*
X027430Y032393D01*
X028180Y032893D02*
X028555Y033268D01*
X028555Y033768D01*
X028305Y034018D01*
X028180Y034018D01*
X026680Y033893D02*
X026680Y034268D01*
X026680Y034393D01*
X026680Y036862D01*
X026680Y036893D01*
X026930Y036893D01*
X026680Y037143D01*
X026680Y036893D01*
X026680Y036862D02*
X026711Y036893D01*
X025930Y038143D02*
X025243Y037456D01*
X025930Y038143D02*
X029680Y038143D01*
X030118Y037893D02*
X031118Y037893D01*
X031118Y036643D01*
X031118Y036143D01*
X030930Y035893D01*
X030930Y035393D01*
X030930Y035143D01*
X030930Y033393D01*
X031805Y033768D02*
X032180Y033768D01*
X032243Y033893D01*
X032180Y035643D01*
X033430Y037143D01*
X033711Y036893D01*
X033805Y037018D02*
X033805Y036643D01*
X033680Y036518D01*
X033180Y036518D01*
X031805Y035143D01*
X031805Y033768D01*
X031805Y035143D02*
X031805Y035393D01*
X033430Y037018D01*
X033805Y037018D01*
X031118Y036643D02*
X030930Y036393D01*
X030680Y036393D01*
X030680Y035893D01*
X030930Y035893D02*
X030930Y036643D01*
X030430Y036643D01*
X030118Y036581D01*
X030118Y036206D01*
X030930Y035393D01*
X030680Y036393D02*
X030118Y036581D01*
X030118Y037081D01*
X030430Y037143D01*
X030118Y037143D01*
X030118Y037893D01*
X030680Y037643D02*
X030868Y037643D01*
X031118Y037893D01*
X030649Y036893D02*
X030680Y036862D01*
X030680Y036393D01*
X029930Y034893D02*
X029930Y034456D01*
X029868Y034456D01*
X029618Y034706D01*
X028743Y035581D01*
X028680Y035643D01*
X028680Y036893D01*
X028930Y036893D02*
X028930Y035893D01*
X029930Y034893D01*
X029743Y034706D02*
X029618Y034706D01*
X033430Y033393D02*
X033430Y032268D01*
X034930Y031268D02*
X035055Y031018D01*
X034930Y031143D01*
X034930Y031268D01*
X034930Y031143D02*
X034930Y030893D01*
X035055Y031018D02*
X035305Y030768D01*
X038930Y033393D02*
X038930Y033893D01*
X038680Y034143D01*
X038680Y034393D02*
X038680Y034643D01*
X041055Y034143D02*
X041055Y033643D01*
X041305Y033393D01*
X041930Y033393D01*
X041680Y033643D01*
X041680Y033768D01*
X042055Y033393D01*
X042930Y033393D01*
X042055Y033393D02*
X041930Y033393D01*
X041680Y033643D02*
X041430Y033893D01*
X041430Y034143D01*
X041680Y034143D02*
X041430Y034393D01*
X041305Y034393D01*
X041055Y034143D01*
X041680Y034143D02*
X041680Y033768D01*
X042930Y034393D02*
X043930Y034393D01*
X044568Y035031D01*
X044568Y036059D01*
X044680Y036143D02*
X044180Y036143D01*
X044180Y035143D01*
X044930Y035893D02*
X044680Y036143D01*
X045680Y037393D02*
X045930Y037393D01*
X046430Y037643D02*
X045180Y037643D01*
X046430Y037643D02*
X046930Y037643D01*
X046430Y037643D02*
X047430Y036643D01*
X047430Y035893D01*
X047430Y035393D01*
X047430Y035893D02*
X049680Y033643D01*
X049680Y031393D01*
X049430Y031143D01*
X037930Y028143D02*
X037680Y028393D01*
X033680Y028393D02*
X033180Y028393D01*
X027430Y026143D02*
X026930Y026643D01*
X025180Y027893D02*
X025180Y028393D01*
X024805Y028393D01*
X024805Y028518D01*
X024805Y028393D02*
X024805Y028143D01*
X024930Y028143D01*
X024805Y028143D02*
X024805Y028018D01*
X024930Y027893D01*
X025180Y027893D01*
X014930Y033018D02*
X014555Y033018D01*
X014055Y033518D01*
X014055Y035893D01*
X014180Y036018D01*
X014805Y036018D01*
X014930Y035893D01*
X014930Y035643D01*
X014680Y035893D01*
X014430Y035893D01*
X014430Y033393D01*
X014680Y033143D01*
X014930Y033143D01*
X014930Y033018D01*
X014930Y033143D02*
X014930Y035268D01*
X014805Y035143D01*
X014680Y035143D02*
X014680Y034393D01*
X014680Y033893D01*
X014430Y033393D01*
X014180Y033643D01*
X014680Y033893D02*
X014680Y033143D01*
X014180Y032143D02*
X013680Y032393D01*
X010680Y032018D02*
X010680Y031768D01*
X009180Y030268D01*
X007555Y030268D01*
X007430Y030393D01*
X007430Y030643D01*
X008930Y030643D01*
X009180Y030643D02*
X010430Y031893D01*
X010430Y033643D01*
X010680Y033643D01*
X010680Y032018D01*
X009993Y031331D01*
X010055Y033643D01*
X010180Y033643D01*
X009930Y033643D01*
X009680Y033393D01*
X009680Y031768D01*
X008930Y031018D01*
X007555Y031018D01*
X007430Y030893D01*
X007430Y030643D01*
X009993Y031331D02*
X010680Y033643D01*
X010430Y033643D02*
X010180Y033643D01*
X011180Y035143D02*
X011180Y035153D01*
X014180Y035143D02*
X014680Y035143D01*
X014930Y035268D02*
X014930Y035643D01*
X014180Y035893D01*
X014430Y035893D01*
X014930Y035643D02*
X014680Y034393D01*
X014180Y035143D02*
X014930Y035643D01*
X011180Y037133D02*
X011180Y037143D01*
X020180Y037268D02*
X020430Y037893D01*
X020180Y037393D02*
X020180Y037268D01*
X022180Y038643D02*
X022430Y038893D01*
X022430Y038643D02*
X022180Y038643D01*
D30*
X025430Y035018D02*
X025805Y035018D01*
X025930Y034893D01*
X025930Y034518D01*
X025805Y034393D01*
X025805Y034518D01*
X025555Y034768D01*
X025555Y033768D01*
X025305Y033768D02*
X025305Y034893D01*
X025430Y035018D01*
X025743Y034706D02*
X025743Y033331D01*
X025305Y033768D01*
X025743Y033331D02*
X026180Y032893D01*
X026868Y032893D01*
X027430Y033456D01*
X027430Y034206D01*
X027930Y034706D01*
X028555Y034706D01*
X029305Y033956D01*
X029305Y030518D01*
X028930Y030143D01*
X028930Y027893D01*
X029430Y027393D01*
X029930Y027393D01*
X030430Y026893D01*
X030430Y026143D01*
X032430Y026143D02*
X032430Y025643D01*
X033068Y025006D01*
X033680Y025006D01*
X033680Y024406D02*
X033618Y024343D01*
X032780Y024343D01*
X032543Y024393D01*
X031943Y024393D02*
X031930Y024393D01*
X031430Y023893D01*
X031430Y023143D01*
X031305Y023018D01*
X031305Y020518D01*
X030430Y019643D01*
X030430Y019268D01*
X030430Y018643D01*
X029680Y018893D01*
X029805Y018768D02*
X030180Y018768D01*
X030055Y018893D02*
X030430Y019268D01*
X029680Y019893D02*
X029680Y020643D01*
X028930Y020393D01*
X029180Y020643D01*
X028930Y021143D01*
X029680Y020643D01*
X029180Y021143D01*
X028930Y021143D01*
X028680Y020643D01*
X028680Y020143D01*
X028680Y019893D02*
X029055Y019893D01*
X029680Y019893D01*
X028680Y019893D02*
X028430Y020143D01*
X028430Y020893D01*
X028680Y021143D01*
X028930Y021143D01*
X029930Y021393D02*
X030618Y021393D01*
X030618Y020956D01*
X030555Y020956D02*
X030180Y021143D01*
X031930Y021643D02*
X031930Y020018D01*
X032055Y020018D01*
X032680Y019393D01*
X032680Y019143D01*
X031368Y019143D01*
X031368Y019456D01*
X031930Y020018D01*
X031930Y019643D01*
X031680Y019393D01*
X031555Y019393D01*
X032618Y019393D01*
X032430Y019643D02*
X031930Y019643D01*
X031430Y019393D02*
X031368Y019456D01*
X032618Y020581D02*
X033305Y019893D01*
X034180Y019893D01*
X035618Y018456D01*
X037868Y018456D01*
X038180Y018768D01*
X038180Y019893D01*
X038243Y019893D01*
X038680Y019456D01*
X038680Y018206D01*
X038993Y017893D01*
X038993Y017768D01*
X038555Y017768D01*
X038430Y017893D01*
X037868Y018456D01*
X037993Y018456D02*
X038180Y018768D01*
X038493Y019081D01*
X038493Y019018D01*
X038243Y018768D01*
X038243Y018268D01*
X038180Y018206D01*
X038180Y018331D01*
X037993Y018518D01*
X037993Y018456D01*
X038493Y018143D02*
X038430Y017893D01*
X039743Y018518D02*
X039743Y019518D01*
X040680Y020456D01*
X040680Y019518D01*
X039930Y018768D01*
X039743Y018518D02*
X040743Y019518D01*
X040743Y019956D01*
X040743Y021331D01*
X041493Y022081D01*
X041555Y022206D02*
X041805Y022456D01*
X041868Y022581D02*
X041555Y022268D01*
X040805Y022268D01*
X040618Y022081D01*
X040618Y021581D01*
X040680Y021518D01*
X040680Y021268D01*
X039930Y021456D02*
X039930Y021018D01*
X039680Y020768D01*
X039180Y020768D01*
X038868Y021081D01*
X038868Y022581D01*
X038930Y022456D02*
X038930Y022143D01*
X039618Y021456D01*
X039618Y021143D01*
X039743Y021018D01*
X039305Y021018D01*
X039930Y021456D02*
X038930Y022456D01*
X039805Y023768D02*
X039805Y024268D01*
X040430Y023643D01*
X040305Y023268D02*
X040618Y022956D01*
X041118Y022956D01*
X041118Y023331D01*
X039868Y024581D01*
X039805Y024268D02*
X039805Y029018D01*
X034480Y024343D02*
X033680Y024343D01*
X033680Y024406D01*
X034480Y024343D02*
X035743Y023081D01*
X035930Y022643D02*
X036930Y021643D01*
X036180Y022643D02*
X035930Y022643D01*
X034430Y022206D02*
X034180Y021956D01*
X033368Y021956D01*
X033430Y022018D01*
X033368Y021956D02*
X033305Y021893D01*
X032618Y021206D01*
X032618Y020581D01*
X033305Y020768D02*
X033305Y021018D01*
X033368Y021081D01*
X034430Y021081D01*
X034868Y021518D01*
X035055Y021268D02*
X035180Y020893D01*
X034930Y020893D01*
X034680Y020643D01*
X033430Y020643D01*
X033305Y020768D01*
X033430Y020893D02*
X034930Y020893D01*
X035055Y021268D02*
X035243Y021143D01*
X034430Y022206D02*
X034243Y022206D01*
X033743Y022706D01*
X033743Y022393D01*
X033930Y022206D01*
X033368Y022143D02*
X033305Y021893D01*
X032368Y022081D02*
X031930Y021643D01*
X032368Y022143D02*
X032430Y022768D01*
X032305Y022893D01*
X032430Y023143D02*
X032368Y022143D01*
X029055Y019018D02*
X028180Y019018D01*
X028055Y019143D01*
X027930Y019143D01*
X027930Y019018D02*
X028180Y018768D01*
X028680Y018768D01*
X028805Y018893D01*
X028430Y018893D01*
X028180Y019143D01*
X027680Y019143D01*
X027680Y018393D01*
X027930Y018393D01*
X028430Y018893D01*
X028805Y018893D02*
X029055Y018893D01*
X029305Y018768D02*
X029805Y018768D01*
X029555Y017893D02*
X029055Y017893D01*
X028805Y017893D01*
X028805Y015768D01*
X028430Y016143D01*
X028430Y017143D01*
X028930Y017643D01*
X029180Y017643D01*
X029430Y017643D02*
X029555Y017893D01*
X029430Y017643D02*
X029430Y016143D01*
X029805Y015768D01*
X030555Y015768D01*
X030680Y015643D01*
X030680Y015268D01*
X030555Y015143D01*
X029430Y015143D01*
X028930Y015643D01*
X028930Y016893D01*
X028680Y017143D01*
X028805Y015768D02*
X028930Y015643D01*
X026930Y016518D02*
X026305Y017143D01*
X025930Y017518D01*
X026180Y017393D01*
X026430Y017518D01*
X026180Y018268D01*
X026180Y019393D01*
X025930Y019893D02*
X025805Y020018D01*
X024680Y020018D01*
X023805Y020893D01*
X023805Y023218D01*
X023980Y023518D01*
X021430Y022518D02*
X021293Y022643D01*
X020693Y022643D02*
X020555Y022643D01*
X019430Y023643D02*
X017430Y023643D01*
X016055Y022268D01*
X012805Y022268D01*
X012430Y022643D01*
X011930Y023143D01*
X012430Y023143D01*
X012430Y022643D01*
X011930Y023143D02*
X011430Y023143D01*
X010930Y023143D01*
X009680Y024393D01*
X009680Y024643D01*
X009930Y024643D01*
X010180Y024393D01*
X011180Y023393D01*
X011430Y023143D01*
X011180Y023393D02*
X010930Y023393D01*
X010555Y022393D02*
X009930Y023018D01*
X008680Y023018D01*
X008680Y023643D01*
X008680Y024393D01*
X007680Y024393D02*
X007680Y021643D01*
X007680Y021393D02*
X007680Y021143D01*
X007430Y021143D01*
X007180Y021393D01*
X007180Y025893D01*
X007680Y026393D01*
X007930Y026393D01*
X010430Y026393D01*
X010680Y026393D01*
X010930Y026143D01*
X010680Y026143D01*
X010180Y026643D01*
X010930Y027393D01*
X010930Y027893D01*
X010180Y027143D01*
X009930Y026893D01*
X008430Y026893D01*
X008430Y027143D02*
X010180Y027143D01*
X010180Y026643D02*
X010680Y026643D01*
X011180Y027143D01*
X011180Y027643D01*
X011680Y028143D01*
X011180Y028143D01*
X010930Y027893D01*
X011180Y027643D02*
X011180Y028143D01*
X011680Y028143D02*
X012430Y028143D01*
X012430Y027143D02*
X012993Y027143D01*
X013618Y027768D01*
X013618Y030206D01*
X013180Y030393D01*
X013180Y030518D01*
X013305Y030518D01*
X013555Y030268D01*
X013180Y030393D02*
X013055Y030393D01*
X013055Y030143D01*
X013555Y029643D01*
X014305Y030581D02*
X014305Y027456D01*
X013555Y026706D01*
X013555Y025018D01*
X014430Y024143D01*
X015430Y024143D01*
X016680Y024143D01*
X017555Y025018D01*
X017555Y026268D01*
X017180Y026643D01*
X017180Y027018D01*
X017055Y027143D01*
X017055Y027393D02*
X017555Y026893D01*
X017555Y026518D01*
X017555Y026268D01*
X017555Y026518D02*
X017430Y026643D01*
X017180Y026643D01*
X016680Y027143D01*
X016680Y027393D01*
X017055Y027393D01*
X017180Y026893D02*
X017430Y026643D01*
X016805Y026018D02*
X016555Y026018D01*
X016430Y025893D01*
X016430Y026018D01*
X016680Y026143D02*
X015680Y026143D01*
X015930Y026143D02*
X016555Y025518D01*
X016680Y025643D01*
X016555Y025518D02*
X016805Y025518D01*
X016805Y026018D01*
X016680Y026143D01*
X015430Y027143D02*
X014930Y027143D01*
X014305Y026518D01*
X014305Y025643D01*
X014805Y025143D01*
X015430Y025143D01*
X015430Y024143D02*
X015430Y023143D01*
X016805Y022018D02*
X016305Y021518D01*
X012305Y021518D01*
X011430Y022393D01*
X010555Y022393D01*
X010180Y021643D02*
X010930Y021643D01*
X011680Y020893D01*
X011180Y020893D01*
X010930Y021143D01*
X010680Y021393D01*
X010430Y021393D01*
X010930Y020893D01*
X010930Y021018D02*
X011180Y020768D01*
X011805Y020768D01*
X011430Y021143D01*
X011180Y021143D01*
X010930Y021143D02*
X010930Y021018D01*
X010930Y021143D02*
X010930Y021393D01*
X010430Y021393D02*
X010180Y021393D01*
X010180Y021643D02*
X009680Y022143D01*
X009680Y021643D01*
X010555Y020768D01*
X011180Y020768D01*
X011805Y020768D02*
X017305Y020768D01*
X017680Y021143D01*
X017680Y020893D02*
X017930Y021143D01*
X017680Y020893D02*
X017555Y020768D01*
X017930Y020768D01*
X018680Y021518D01*
X018680Y022393D01*
X016930Y022018D02*
X016930Y021518D01*
X016805Y021393D01*
X016555Y021393D01*
X016430Y021518D01*
X016305Y021518D01*
X016430Y021518D02*
X016555Y021518D01*
X016680Y021643D01*
X016805Y022018D02*
X016930Y022018D01*
X017305Y020768D02*
X017555Y020768D01*
X018430Y023893D02*
X019430Y023643D01*
X018680Y023843D02*
X018630Y023893D01*
X018430Y023893D01*
X019430Y027143D02*
X018680Y027893D01*
X018680Y028893D02*
X016930Y028893D01*
X016680Y029143D01*
X016680Y030143D01*
X017055Y030518D01*
X017055Y030393D02*
X017055Y029143D01*
X017180Y029143D01*
X017305Y029018D01*
X017305Y029393D02*
X017305Y030518D01*
X017180Y030518D01*
X017055Y030393D01*
X017180Y030393D01*
X017055Y030393D02*
X016930Y030393D01*
X016930Y028893D01*
X018430Y028893D01*
X018680Y028893D02*
X017805Y028893D01*
X017305Y029393D01*
X015930Y029143D02*
X015430Y029643D01*
X014930Y029143D01*
X015430Y029143D01*
X015430Y029643D01*
X015430Y030143D01*
X015430Y030643D01*
X014930Y031143D01*
X016305Y031143D01*
X016805Y031643D01*
X016305Y031643D01*
X015930Y031268D01*
X016555Y031268D01*
X016180Y030893D01*
X016180Y031893D01*
X015930Y031268D02*
X015180Y031268D01*
X014930Y031143D02*
X014805Y031268D01*
X015805Y031268D01*
X016055Y031018D01*
X015680Y031018D01*
X015555Y030893D01*
X015805Y030643D01*
X015680Y030643D01*
X015555Y030518D01*
X015430Y030143D02*
X016180Y030893D01*
X016555Y031268D02*
X016930Y031643D01*
X014930Y031643D02*
X014430Y031643D01*
X014180Y031893D01*
X013930Y032143D01*
X013305Y032143D01*
X013305Y032768D01*
X013680Y032768D01*
X014180Y032268D01*
X014180Y032143D02*
X014055Y032143D01*
X014305Y031893D01*
X014180Y031893D01*
X014180Y032143D02*
X013930Y032393D01*
X013680Y032393D01*
X013930Y032143D01*
X014055Y032143D01*
X014430Y031643D02*
X014805Y031268D01*
X014305Y030581D02*
X013618Y031268D01*
X012555Y031268D01*
X012305Y031018D01*
X012305Y030518D01*
X012180Y030393D02*
X012055Y030393D01*
X012055Y030893D01*
X012430Y031268D01*
X012555Y031268D01*
X012305Y031018D02*
X012180Y030893D01*
X012180Y030393D01*
X011180Y031143D02*
X011555Y031518D01*
X011555Y031893D01*
X011555Y032393D01*
X011555Y032768D01*
X012055Y032768D01*
X012055Y032018D01*
X011805Y031768D01*
X011805Y032393D01*
X011680Y032393D01*
X011555Y032393D01*
X011680Y032393D02*
X011680Y031643D01*
X011805Y031768D01*
X011680Y031643D02*
X011555Y031518D01*
X011180Y031143D02*
X011180Y029143D01*
X010180Y029143D01*
X009680Y028643D01*
X009180Y028643D01*
X009180Y028633D02*
X009690Y029143D01*
X010430Y029143D01*
X010430Y029893D01*
X010930Y029393D01*
X010680Y029393D01*
X010680Y030393D01*
X011930Y029143D01*
X011180Y029143D01*
X010930Y029393D01*
X010930Y030643D01*
X010680Y030643D01*
X010430Y030393D01*
X010430Y029893D01*
X010180Y029643D01*
X010180Y029393D01*
X009930Y029143D01*
X009680Y029143D01*
X010180Y029643D01*
X010430Y029143D02*
X011180Y029143D01*
X011930Y029143D02*
X012430Y029143D01*
X010680Y030643D02*
X011180Y031143D01*
X010430Y030393D02*
X008930Y028893D01*
X008930Y028643D01*
X008430Y027143D02*
X007930Y026643D01*
X008180Y026643D01*
X007930Y026393D01*
X007930Y026143D01*
X007930Y026393D02*
X007430Y025893D01*
X007430Y021393D01*
X008680Y021643D02*
X008680Y022393D01*
X009180Y022893D01*
X009180Y023143D01*
X008680Y023643D01*
X008680Y023018D02*
X008680Y021643D01*
X009680Y021393D02*
X009680Y021143D01*
X010430Y021143D01*
X010180Y024393D02*
X009680Y024393D01*
X007680Y024393D02*
X007680Y025643D01*
X008680Y026643D01*
X008180Y026643D01*
X007930Y026643D02*
X007680Y026393D01*
X008680Y026643D02*
X008690Y026653D01*
X009180Y026653D01*
X011170Y026653D01*
X011180Y026643D01*
X011180Y026143D01*
X010930Y026393D01*
X010680Y026393D01*
X010680Y025893D02*
X009930Y026643D01*
X009180Y026643D01*
X010680Y025893D02*
X011180Y025893D01*
X011180Y026143D01*
X011180Y026643D02*
X011180Y027143D01*
X015430Y027143D02*
X015430Y028143D01*
X009993Y031331D02*
X009055Y030393D01*
X008180Y030393D01*
X010180Y032643D02*
X010180Y033393D01*
X011430Y034643D02*
X008180Y034643D01*
X007930Y034893D01*
X007930Y035393D01*
X008180Y035643D01*
X008430Y035643D01*
X008180Y035393D01*
X008180Y035143D01*
X008430Y034893D01*
X008680Y034893D01*
X008680Y035143D01*
X008430Y035393D01*
X008680Y035393D01*
X008930Y035143D02*
X008930Y035643D01*
X008430Y035643D01*
X008930Y035643D02*
X011430Y035643D01*
X011680Y035393D01*
X011680Y034893D01*
X011430Y034643D01*
X011430Y036643D02*
X008930Y036643D01*
X008180Y036643D01*
X007930Y036893D01*
X007930Y037393D01*
X008180Y037643D01*
X011430Y037643D01*
X011680Y037393D01*
X011680Y036893D01*
X011430Y036643D01*
X011180Y036893D02*
X008930Y036893D01*
X008430Y036893D01*
X008680Y037143D01*
X008680Y037393D01*
X008430Y037393D01*
X008180Y037143D01*
X008430Y036893D01*
X008930Y036893D02*
X008930Y036643D01*
X011180Y036893D02*
X011180Y037143D01*
X015180Y037143D02*
X016180Y036143D01*
X022180Y033893D02*
X023180Y032893D01*
X023680Y032893D01*
X026430Y033768D02*
X026430Y034143D01*
X026680Y034393D01*
X026680Y034268D02*
X026805Y034143D01*
X026805Y033893D01*
X026680Y033893D01*
X026805Y033768D02*
X026680Y034268D01*
X026805Y033768D02*
X026680Y033643D01*
X026555Y033643D01*
X026430Y033768D01*
X028180Y034018D02*
X028243Y033893D01*
X028180Y033143D02*
X027680Y032393D01*
X027055Y031768D01*
X027055Y031268D01*
X026930Y031643D01*
X026305Y030768D01*
X026680Y030643D02*
X026930Y030393D01*
X026680Y030643D02*
X026680Y030893D01*
X027055Y031268D02*
X027055Y030018D01*
X026680Y029893D01*
X027055Y030018D02*
X027055Y027018D01*
X027430Y026643D01*
X027430Y026393D01*
X032305Y030893D02*
X032805Y030393D01*
X032305Y031143D01*
X031055Y031143D01*
X030180Y031268D01*
X030180Y033143D01*
X030930Y033893D01*
X030930Y035143D01*
X030930Y035393D02*
X030930Y036393D01*
X030930Y036643D01*
X030680Y037143D02*
X031680Y038143D01*
X030867Y038143D01*
X030430Y038143D01*
X030180Y038143D01*
X030680Y037643D01*
X030649Y037925D02*
X030867Y038143D01*
X030649Y037925D02*
X030430Y038143D01*
X030180Y038143D02*
X029680Y038143D01*
X030680Y037143D01*
X031680Y038143D02*
X036680Y038143D01*
X037680Y037143D01*
X038680Y038143D01*
X038305Y038143D01*
X038180Y037893D01*
X038305Y038143D02*
X037774Y038143D01*
X037430Y038143D01*
X036680Y038143D01*
X037430Y038143D02*
X037649Y037925D01*
X037649Y037893D02*
X037774Y038143D01*
X038680Y038143D02*
X040930Y038143D01*
X041430Y037643D01*
X041430Y035643D01*
X041930Y035143D01*
X043680Y035143D01*
X044680Y036143D01*
X044680Y035893D01*
X045180Y035393D01*
X045180Y036143D01*
X044805Y036518D01*
X044055Y036518D01*
X043805Y036268D01*
X043805Y035518D01*
X043305Y035018D01*
X043430Y034643D02*
X042680Y034643D01*
X042555Y034768D02*
X042430Y034893D01*
X043930Y034893D01*
X044180Y035143D01*
X044430Y035393D01*
X044180Y035393D01*
X043430Y034643D01*
X044930Y034643D01*
X044930Y035393D01*
X045180Y035393D02*
X045180Y034643D01*
X044805Y034268D01*
X044680Y034393D01*
X044805Y034268D02*
X042555Y034268D01*
X042555Y034768D01*
X042680Y034393D02*
X041930Y035143D01*
X042680Y034393D02*
X042930Y034393D01*
X032430Y033706D02*
X032430Y035893D01*
X031930Y034393D02*
X031805Y033706D01*
X032430Y033706D01*
X030055Y031643D02*
X030055Y031518D01*
X030430Y031143D01*
X030430Y031268D01*
X030180Y031518D01*
X030180Y031143D02*
X030493Y030831D01*
X032305Y030831D01*
X031930Y030893D01*
X031680Y031143D01*
X031180Y031143D01*
X031055Y031268D01*
X030930Y031393D02*
X030180Y031143D01*
X030930Y031393D02*
X031680Y031393D01*
X031805Y031393D01*
X032305Y030893D01*
X032305Y030831D02*
X032430Y030893D01*
X027055Y031768D02*
X026930Y031643D01*
X039805Y023768D02*
X040305Y023268D01*
X040930Y023143D01*
X040743Y019956D02*
X039930Y019143D01*
X035243Y017706D02*
X034868Y017706D01*
X034493Y018081D01*
X033993Y018081D01*
X033930Y018018D01*
X033805Y018018D01*
X033680Y017893D01*
X033180Y017643D02*
X034055Y018518D01*
X034430Y018518D01*
X035243Y017706D01*
X034305Y017706D02*
X034180Y017643D01*
X033180Y017643D01*
X033130Y017643D01*
X032930Y017443D01*
X032930Y016843D02*
X032930Y016393D01*
X034180Y015143D01*
X032805Y015268D02*
X032680Y015143D01*
X031930Y014393D01*
X031930Y014331D01*
X031430Y014893D02*
X031430Y015768D01*
X031743Y015768D01*
X031743Y015206D01*
X031680Y015143D01*
X031555Y015393D01*
X031680Y015143D02*
X031430Y014893D01*
X030940Y014403D01*
X030930Y014393D01*
X030930Y013643D01*
X030940Y013393D02*
X030940Y014403D01*
X032680Y015143D02*
X032618Y015393D01*
X032680Y015518D01*
X032743Y015518D01*
X032805Y015518D01*
X032805Y015268D01*
X034305Y017706D02*
X034305Y018331D01*
X037170Y013393D02*
X037180Y013383D01*
X031930Y012018D02*
X031680Y011893D01*
X026930Y016643D02*
X026930Y016893D01*
X026680Y017143D01*
X026680Y018643D01*
X025430Y019893D01*
X025930Y019893D02*
X025930Y017643D01*
X025930Y017518D01*
X026055Y017893D01*
X025930Y017643D02*
X026180Y017393D01*
X026430Y017143D01*
X026305Y017143D01*
X026430Y017393D02*
X026680Y017143D01*
X026930Y016893D02*
X026930Y018893D01*
X025930Y019893D01*
X024930Y019143D02*
X024680Y019143D01*
X024305Y019518D01*
D31*
X011180Y035153D02*
X009180Y035153D01*
X009180Y037133D02*
X011180Y037133D01*
D32*
X024680Y024143D02*
X024680Y022393D01*
X024680Y020893D01*
X024930Y020643D01*
X025430Y020643D01*
X025680Y020893D01*
X025680Y021393D01*
X025180Y021893D01*
X024930Y021893D01*
X024930Y020893D01*
X025180Y020893D01*
X025430Y020893D01*
X025430Y021143D01*
X025430Y021393D01*
X025180Y021893D02*
X024930Y021143D01*
X025180Y021893D02*
X024680Y022393D01*
X034180Y015143D02*
X034430Y015393D01*
X034180Y014643D02*
X034180Y014393D01*
X033430Y013643D01*
X033180Y013643D01*
X033930Y014393D01*
X033930Y014643D01*
X032930Y013643D01*
X033180Y013643D01*
X032930Y013643D02*
X032930Y013893D01*
X032930Y013643D02*
X032930Y013393D01*
D33*
X044555Y013956D03*
X044555Y018768D03*
X049305Y018768D03*
X044555Y022956D03*
X044555Y027768D03*
X049305Y027768D03*
X049305Y031268D03*
X044555Y031268D03*
X044555Y036018D03*
D34*
X037618Y036893D03*
X035680Y036893D03*
X033680Y036893D03*
X030618Y036893D03*
X028680Y036893D03*
X026680Y036893D03*
X046930Y030456D03*
X046930Y028581D03*
X046930Y019581D03*
D35*
X033430Y020893D03*
X030493Y020956D03*
D36*
X021305Y025893D03*
X018430Y025893D03*
M02*
