%
M48
M72
T01C0.0320
T02C0.0320
T03C0.0400
T04C0.0400
T05C0.0400
T06C0.0470
T07C0.0470
T08C0.0470
T09C0.0512
T10C0.0512
T11C0.1260
%
T01
X35743Y23081
X22430Y28393
T02
X21305Y25893
X18430Y25893
X17930Y21143
X21680Y21143
X30493Y20956
X33430Y20893
X44555Y22956
X46930Y19581
X49305Y18768
X44555Y18768
X44555Y13956
X44555Y27768
X46930Y28581
X49305Y27768
X46930Y30456
X49305Y31268
X44555Y31268
X44555Y36018
X37618Y36893
X35680Y36893
X33680Y36893
X30618Y36893
X28680Y36893
X26680Y36893
X25805Y29018
X32555Y29018
T03
X12430Y13143
X11430Y15768
X15430Y15768
X17805Y15018
X18805Y15018
X19805Y15018
X22430Y15393
X24180Y15393
X26980Y16643
X28380Y16643
X29055Y17893
X29055Y18893
X29055Y19893
X27305Y20143
X28930Y21143
X30430Y22143
X30430Y23143
X29430Y23143
X28430Y23143
X27430Y23143
X26430Y22143
X24930Y21143
X23305Y20143
X22430Y19393
X24180Y19393
X19805Y18018
X18805Y18018
X17805Y18018
X16680Y21643
X15430Y23143
X15430Y24143
X15430Y25143
X16680Y25643
X15430Y26143
X15430Y27143
X15430Y28143
X15430Y29143
X17180Y30393
X18680Y29893
X18680Y28893
X18680Y27893
X17180Y26893
X18680Y23843
X18680Y22443
X22180Y22643
X23980Y23518
X25380Y23518
X27430Y26143
X28430Y26143
X29430Y26143
X30430Y26143
X31430Y26143
X32430Y26143
X33430Y26143
X31930Y27393
X33805Y28268
X31993Y30018
X31993Y31018
X32930Y30893
X33930Y30893
X34930Y30893
X33430Y33393
X32180Y33893
X29743Y34706
X28180Y33893
X26680Y33893
X25743Y34706
X24180Y35893
X21630Y37393
X20230Y37393
X18680Y37393
X18180Y35893
X16680Y37393
X14180Y37143
X14180Y35893
X14180Y35143
X14180Y33643
X13680Y32393
X11680Y32393
X10180Y33643
X11180Y35143
X11180Y37143
X19930Y33143
X21930Y33143
X26680Y29893
X28605Y31393
X30005Y31393
X29805Y28268
X27930Y27393
X25680Y26643
X24680Y26643
X23680Y26643
X22180Y26643
X21180Y26893
X23930Y28143
X24930Y28143
X31430Y23143
X32430Y23143
X33430Y23143
X33368Y22143
X32368Y22143
X34305Y22331
X35243Y21143
X35680Y19768
X36930Y19768
X38480Y19143
X39880Y19143
X39743Y21143
X40930Y22081
X40930Y23143
X36930Y23143
X36930Y22081
X32618Y19393
X31555Y19393
X30430Y18393
X34180Y17643
X34305Y18331
X34180Y16643
X34180Y15643
X35680Y15768
X36930Y15768
X38305Y16393
X39305Y16393
X43180Y15143
X43180Y12143
X32618Y15393
X31555Y15393
X30430Y15393
X16430Y13143
X10930Y21393
X9680Y21643
X8680Y21643
X7680Y21643
X10930Y23393
X12430Y23143
X12430Y24143
X12430Y25143
X12430Y26143
X11180Y26143
X12430Y27143
X12430Y28143
X12430Y29143
X11180Y29143
X12180Y30393
X13180Y30393
X8180Y30393
X7680Y24393
X8680Y24393
X9680Y24393
X24180Y37893
X37430Y34143
X37430Y33393
X38930Y33393
X38930Y32393
X38930Y31393
X41430Y34143
X42930Y34393
X42930Y33393
X42930Y32393
X42930Y31393
X42930Y28393
T04
X16430Y14393
X14930Y17518
X11930Y17518
X11430Y14393
T05
X34930Y26893
X37930Y26893
X25180Y31268
X23180Y31268
X22180Y34643
X21180Y34643
X20180Y34643
T06
X17680Y34393
X17680Y33143
X14680Y33143
X14680Y34393
X24930Y19018
X27930Y19018
T07
X14993Y31331
X9993Y31331
T08
X26711Y36893
X28680Y36893
X30649Y36893
X33711Y36893
X35680Y36893
X37649Y36893
T09
X44568Y36059
X49292Y36059
X49292Y31256
X46930Y30468
X46930Y28569
X49292Y27781
X44568Y27781
X44568Y31256
X44568Y22978
X49292Y22978
X46930Y19569
X49292Y18781
X44568Y18781
X44568Y13978
X49292Y13978
T10
X41420Y13393
X39440Y13393
X37170Y13393
X35190Y13393
X32920Y13393
X30940Y13393
X28670Y13393
X26690Y13393
X24420Y13393
X22440Y13393
X9180Y14423
X9180Y16393
X9180Y18363
X9180Y26653
X9180Y28633
X9180Y35153
X9180Y37133
X40440Y36643
X42420Y36643
T11
X42180Y25393
X42180Y17393
X7930Y32393
M30
