G75*
G70*
%OFA0B0*%
%FSLAX24Y24*%
%IPPOS*%
%LPD*%
%AMOC8*
5,1,8,0,0,1.08239X$1,22.5*
%
%ADD10C,0.0000*%
D10*
X006430Y011143D02*
X006430Y039263D01*
X050672Y039263D01*
X050672Y011143D01*
X006430Y011143D01*
X007300Y032393D02*
X007302Y032443D01*
X007308Y032493D01*
X007318Y032542D01*
X007332Y032590D01*
X007349Y032637D01*
X007370Y032682D01*
X007395Y032726D01*
X007423Y032767D01*
X007455Y032806D01*
X007489Y032843D01*
X007526Y032877D01*
X007566Y032907D01*
X007608Y032934D01*
X007652Y032958D01*
X007698Y032979D01*
X007745Y032995D01*
X007793Y033008D01*
X007843Y033017D01*
X007892Y033022D01*
X007943Y033023D01*
X007993Y033020D01*
X008042Y033013D01*
X008091Y033002D01*
X008139Y032987D01*
X008185Y032969D01*
X008230Y032947D01*
X008273Y032921D01*
X008314Y032892D01*
X008353Y032860D01*
X008389Y032825D01*
X008421Y032787D01*
X008451Y032747D01*
X008478Y032704D01*
X008501Y032660D01*
X008520Y032614D01*
X008536Y032566D01*
X008548Y032517D01*
X008556Y032468D01*
X008560Y032418D01*
X008560Y032368D01*
X008556Y032318D01*
X008548Y032269D01*
X008536Y032220D01*
X008520Y032172D01*
X008501Y032126D01*
X008478Y032082D01*
X008451Y032039D01*
X008421Y031999D01*
X008389Y031961D01*
X008353Y031926D01*
X008314Y031894D01*
X008273Y031865D01*
X008230Y031839D01*
X008185Y031817D01*
X008139Y031799D01*
X008091Y031784D01*
X008042Y031773D01*
X007993Y031766D01*
X007943Y031763D01*
X007892Y031764D01*
X007843Y031769D01*
X007793Y031778D01*
X007745Y031791D01*
X007698Y031807D01*
X007652Y031828D01*
X007608Y031852D01*
X007566Y031879D01*
X007526Y031909D01*
X007489Y031943D01*
X007455Y031980D01*
X007423Y032019D01*
X007395Y032060D01*
X007370Y032104D01*
X007349Y032149D01*
X007332Y032196D01*
X007318Y032244D01*
X007308Y032293D01*
X007302Y032343D01*
X007300Y032393D01*
X041550Y025393D02*
X041552Y025443D01*
X041558Y025493D01*
X041568Y025542D01*
X041582Y025590D01*
X041599Y025637D01*
X041620Y025682D01*
X041645Y025726D01*
X041673Y025767D01*
X041705Y025806D01*
X041739Y025843D01*
X041776Y025877D01*
X041816Y025907D01*
X041858Y025934D01*
X041902Y025958D01*
X041948Y025979D01*
X041995Y025995D01*
X042043Y026008D01*
X042093Y026017D01*
X042142Y026022D01*
X042193Y026023D01*
X042243Y026020D01*
X042292Y026013D01*
X042341Y026002D01*
X042389Y025987D01*
X042435Y025969D01*
X042480Y025947D01*
X042523Y025921D01*
X042564Y025892D01*
X042603Y025860D01*
X042639Y025825D01*
X042671Y025787D01*
X042701Y025747D01*
X042728Y025704D01*
X042751Y025660D01*
X042770Y025614D01*
X042786Y025566D01*
X042798Y025517D01*
X042806Y025468D01*
X042810Y025418D01*
X042810Y025368D01*
X042806Y025318D01*
X042798Y025269D01*
X042786Y025220D01*
X042770Y025172D01*
X042751Y025126D01*
X042728Y025082D01*
X042701Y025039D01*
X042671Y024999D01*
X042639Y024961D01*
X042603Y024926D01*
X042564Y024894D01*
X042523Y024865D01*
X042480Y024839D01*
X042435Y024817D01*
X042389Y024799D01*
X042341Y024784D01*
X042292Y024773D01*
X042243Y024766D01*
X042193Y024763D01*
X042142Y024764D01*
X042093Y024769D01*
X042043Y024778D01*
X041995Y024791D01*
X041948Y024807D01*
X041902Y024828D01*
X041858Y024852D01*
X041816Y024879D01*
X041776Y024909D01*
X041739Y024943D01*
X041705Y024980D01*
X041673Y025019D01*
X041645Y025060D01*
X041620Y025104D01*
X041599Y025149D01*
X041582Y025196D01*
X041568Y025244D01*
X041558Y025293D01*
X041552Y025343D01*
X041550Y025393D01*
X041550Y017393D02*
X041552Y017443D01*
X041558Y017493D01*
X041568Y017542D01*
X041582Y017590D01*
X041599Y017637D01*
X041620Y017682D01*
X041645Y017726D01*
X041673Y017767D01*
X041705Y017806D01*
X041739Y017843D01*
X041776Y017877D01*
X041816Y017907D01*
X041858Y017934D01*
X041902Y017958D01*
X041948Y017979D01*
X041995Y017995D01*
X042043Y018008D01*
X042093Y018017D01*
X042142Y018022D01*
X042193Y018023D01*
X042243Y018020D01*
X042292Y018013D01*
X042341Y018002D01*
X042389Y017987D01*
X042435Y017969D01*
X042480Y017947D01*
X042523Y017921D01*
X042564Y017892D01*
X042603Y017860D01*
X042639Y017825D01*
X042671Y017787D01*
X042701Y017747D01*
X042728Y017704D01*
X042751Y017660D01*
X042770Y017614D01*
X042786Y017566D01*
X042798Y017517D01*
X042806Y017468D01*
X042810Y017418D01*
X042810Y017368D01*
X042806Y017318D01*
X042798Y017269D01*
X042786Y017220D01*
X042770Y017172D01*
X042751Y017126D01*
X042728Y017082D01*
X042701Y017039D01*
X042671Y016999D01*
X042639Y016961D01*
X042603Y016926D01*
X042564Y016894D01*
X042523Y016865D01*
X042480Y016839D01*
X042435Y016817D01*
X042389Y016799D01*
X042341Y016784D01*
X042292Y016773D01*
X042243Y016766D01*
X042193Y016763D01*
X042142Y016764D01*
X042093Y016769D01*
X042043Y016778D01*
X041995Y016791D01*
X041948Y016807D01*
X041902Y016828D01*
X041858Y016852D01*
X041816Y016879D01*
X041776Y016909D01*
X041739Y016943D01*
X041705Y016980D01*
X041673Y017019D01*
X041645Y017060D01*
X041620Y017104D01*
X041599Y017149D01*
X041582Y017196D01*
X041568Y017244D01*
X041558Y017293D01*
X041552Y017343D01*
X041550Y017393D01*
M02*
