%
M48
M72
T01C0.0236
T02C0.0236
T03C0.0320
T04C0.0400
T05C0.0400
T06C0.0400
T07C0.0400
T08C0.0470
T09C0.0470
T10C0.0470
T11C0.1260
%
T01
X32430Y22893
X19430Y28393
T02
X18055Y26393
X18180Y24643
X15430Y24643
X15430Y26393
X9180Y25143
X9180Y23143
X9180Y21143
X22805Y29268
X29055Y29268
X27618Y36893
X25680Y36893
X23680Y36893
X30680Y36893
X32680Y36893
X34618Y36893
X41555Y36018
X41555Y31268
X43930Y30456
X43930Y28581
X41555Y27768
X46305Y27768
X46305Y31268
X41555Y22956
X43930Y19581
X41555Y18768
X46305Y18768
X41555Y13956
X35930Y20893
X27930Y20893
T03
X13180Y13143
X13680Y15893
X14680Y16393
X15680Y16393
X16680Y16393
X19680Y15393
X21430Y15393
X24730Y16643
X26130Y16643
X27430Y15393
X29430Y15393
X31180Y15393
X31180Y16393
X31180Y17393
X32680Y15643
X33930Y15643
X35730Y17643
X37130Y17643
X33930Y19643
X32680Y19643
X33930Y22393
X33930Y23393
X30430Y23143
X29430Y23143
X28430Y23143
X27430Y23143
X26430Y23143
X25430Y23143
X24430Y23143
X23430Y21893
X22380Y23393
X20980Y23393
X19180Y22393
X19680Y19393
X21430Y19393
X16680Y19393
X15680Y19393
X14680Y19393
X13680Y19893
X15430Y22393
X14130Y24643
X12730Y24643
X11430Y22393
X11680Y27393
X10680Y27393
X9680Y27393
X8680Y27393
X8680Y30393
X9680Y30393
X10680Y30393
X11680Y30393
X13180Y30143
X15180Y29893
X15180Y28893
X15180Y27893
X13180Y28143
X17430Y30893
X17430Y31893
X20680Y33643
X21680Y33643
X21680Y31843
X21680Y30443
X23680Y30393
X26230Y31643
X27630Y31643
X29430Y31143
X30430Y31143
X31430Y31143
X30805Y28393
X28930Y27393
X28430Y26143
X27430Y26143
X26430Y26143
X25430Y26143
X24430Y26143
X24930Y27393
X26805Y28393
X29430Y26143
X30430Y26143
X27430Y21893
X26180Y20393
X26180Y19393
X26180Y18393
X27430Y18393
X29430Y19393
X37930Y22393
X37930Y23393
X39930Y28393
X39930Y31393
X39930Y32393
X39930Y33393
X39930Y34393
X38430Y34143
X35930Y33393
X35930Y32393
X35930Y31393
X34430Y34143
X33680Y34143
X29680Y34143
X28680Y34143
X24680Y34143
X23680Y34393
X20430Y35193
X20430Y36593
X18180Y35893
X14180Y35893
X14180Y34893
X13680Y33143
X11180Y34893
X11180Y36893
X14180Y36893
X9680Y33143
X19180Y26393
X20680Y26643
X21680Y26643
X22680Y26643
X17180Y13143
X40180Y12143
X40180Y15143
T04
X16180Y14393
X11930Y15893
X11180Y14393
X11930Y18893
T05
X18930Y30893
X18930Y31893
X18930Y32893
X31930Y26893
X34930Y26893
T06
X24430Y20143
X21430Y20143
X17680Y33143
X17680Y34143
X14680Y34143
X14680Y33143
T07
X14680Y31893
X10680Y31893
T08
X9180Y25112
X9180Y23143
X9180Y21175
X23711Y36893
X25680Y36893
X27649Y36893
X30711Y36893
X32680Y36893
X34649Y36893
T09
X41568Y36059
X46292Y36059
X46292Y31256
X43930Y30468
X43930Y28569
X41568Y27781
X41568Y31256
X46292Y27781
X46292Y22978
X43930Y19569
X41568Y18781
X46292Y18781
X41568Y22978
X41568Y13978
X46292Y13978
T10
X38420Y13393
X36440Y13393
X34170Y13393
X32190Y13393
X29920Y13393
X27940Y13393
X25670Y13393
X23690Y13393
X21420Y13393
X19440Y13393
X9430Y14423
X9430Y16393
X9430Y18363
X9180Y34903
X9180Y36883
X37440Y36643
X39420Y36643
T11
X39180Y25393
X39180Y17393
X8180Y32393
M30
