G75*
%MOIN*%
%OFA0B0*%
%FSLAX24Y24*%
%IPPOS*%
%LPD*%
%AMOC8*
5,1,8,0,0,1.08239X$1,22.5*
%
%ADD10C,0.0180*%
%ADD11R,0.1125X0.4625*%
%ADD12C,0.0620*%
%ADD13OC8,0.0620*%
%ADD14OC8,0.0630*%
%ADD15C,0.0630*%
%ADD16C,0.0740*%
%ADD17C,0.0820*%
%ADD18OC8,0.0660*%
%ADD19OC8,0.1000*%
%ADD20C,0.0620*%
%ADD21C,0.0540*%
%ADD22C,0.1000*%
%ADD23C,0.0700*%
%ADD24R,0.0460X0.0630*%
%ADD25C,0.0400*%
%ADD26OC8,0.0700*%
%ADD27C,0.0160*%
%ADD28C,0.0500*%
%ADD29C,0.0760*%
%ADD30OC8,0.2540*%
%ADD31R,0.2540X0.2540*%
%ADD32C,0.0530*%
D10*
X010418Y025608D02*
X010691Y025608D01*
X010828Y025745D01*
X010691Y026019D02*
X010828Y026155D01*
X010828Y026292D01*
X010691Y026429D01*
X010418Y026429D01*
X010281Y026292D01*
X010418Y026019D02*
X010281Y025882D01*
X010281Y025745D01*
X010418Y025608D01*
X010418Y026019D02*
X010691Y026019D01*
X011202Y026019D02*
X011202Y026292D01*
X011338Y026429D01*
X011749Y026429D01*
X011749Y025608D01*
X011749Y025882D02*
X011338Y025882D01*
X011202Y026019D01*
X012122Y025882D02*
X012122Y025745D01*
X012259Y025608D01*
X012533Y025608D01*
X012670Y025745D01*
X012533Y026019D02*
X012259Y026019D01*
X012122Y025882D01*
X012122Y026292D02*
X012259Y026429D01*
X012533Y026429D01*
X012670Y026292D01*
X012670Y026155D01*
X012533Y026019D01*
D11*
X036197Y018206D03*
D12*
X033135Y020333D02*
X033135Y020953D01*
X032135Y020953D02*
X032135Y020333D01*
X031135Y020333D02*
X031135Y020953D01*
X030135Y020953D02*
X030135Y020333D01*
X029135Y020333D02*
X029135Y020953D01*
X028135Y020953D02*
X028135Y020333D01*
X027135Y020333D02*
X027135Y020953D01*
X027135Y023333D02*
X027135Y023953D01*
X028135Y023953D02*
X028135Y023333D01*
X029135Y023333D02*
X029135Y023953D01*
X030135Y023953D02*
X030135Y023333D01*
X031135Y023333D02*
X031135Y023953D01*
X032135Y023953D02*
X032135Y023333D01*
X033135Y023333D02*
X033135Y023953D01*
X023760Y024708D02*
X023760Y025328D01*
X022760Y025328D02*
X022760Y024708D01*
X021760Y024708D02*
X021760Y025328D01*
X020570Y024643D02*
X019950Y024643D01*
X019950Y023643D02*
X020570Y023643D01*
X020570Y022643D02*
X019950Y022643D01*
X019950Y021893D02*
X020570Y021893D01*
X020570Y020893D02*
X019950Y020893D01*
X019950Y019893D02*
X020570Y019893D01*
X016010Y025273D02*
X016010Y025893D01*
X015010Y025893D02*
X015010Y025273D01*
X014010Y025273D02*
X014010Y025893D01*
X014010Y028893D02*
X014010Y029513D01*
X015010Y029513D02*
X015010Y028893D01*
X016010Y028893D02*
X016010Y029513D01*
D13*
X016760Y029143D03*
X020760Y029143D03*
X024510Y025768D03*
X027510Y026643D03*
X028510Y025768D03*
X029385Y025768D03*
X031510Y026643D03*
X033385Y025768D03*
X034260Y021768D03*
X035385Y021768D03*
X037385Y021768D03*
X038385Y021768D03*
X040385Y021768D03*
X041197Y022643D03*
X040697Y023393D03*
X041697Y023393D03*
X043260Y023768D03*
X044010Y024893D03*
X043260Y022768D03*
X041260Y020268D03*
X041260Y018268D03*
X038260Y018268D03*
X034260Y017768D03*
X031447Y019518D03*
X026447Y019518D03*
X026010Y022393D03*
X026010Y023393D03*
X022010Y023393D03*
X022010Y022393D03*
X017635Y023643D03*
X013635Y023643D03*
X040010Y024893D03*
D14*
X038010Y024818D03*
X035647Y024393D03*
X024060Y020268D03*
X036560Y016143D03*
D15*
X037960Y016143D03*
X034247Y024393D03*
X038010Y026218D03*
X025460Y020268D03*
D16*
X026260Y018143D03*
X028135Y017893D03*
X032135Y017893D03*
X023010Y018143D03*
D17*
X024270Y016303D02*
X024270Y015483D01*
X026250Y015483D02*
X026250Y016303D01*
X028270Y016303D02*
X028270Y015483D01*
X030250Y015483D02*
X030250Y016303D01*
X032270Y016303D02*
X032270Y015483D01*
X034250Y015483D02*
X034250Y016303D01*
X042850Y018903D02*
X043670Y018903D01*
X043670Y020883D02*
X042850Y020883D01*
X034250Y028233D02*
X034250Y029053D01*
X032270Y029053D02*
X032270Y028233D01*
X030250Y028233D02*
X030250Y029053D01*
X028270Y029053D02*
X028270Y028233D01*
X026250Y028233D02*
X026250Y029053D01*
X024270Y029053D02*
X024270Y028233D01*
X012170Y023988D02*
X011350Y023988D01*
X011350Y022018D02*
X012170Y022018D01*
X012170Y020048D02*
X011350Y020048D01*
X014270Y016553D02*
X014270Y015733D01*
X016250Y015733D02*
X016250Y016553D01*
D18*
X018510Y019768D03*
X018510Y021893D03*
X015510Y021893D03*
X013510Y019768D03*
D19*
X020135Y018518D03*
X020135Y015518D03*
X018760Y027643D03*
D20*
X038260Y020268D03*
D21*
X036760Y027393D03*
X037760Y028393D03*
X035760Y028393D03*
D22*
X018760Y025643D03*
D23*
X013635Y023643D02*
X010135Y023643D01*
X010260Y023018D02*
X009760Y023018D01*
X009760Y024643D01*
X012635Y024643D01*
X013510Y023768D01*
X013635Y023643D01*
X013510Y023768D02*
X011385Y023768D01*
X010697Y023018D01*
X010260Y023018D01*
X010610Y023018D02*
X009910Y023018D01*
X009910Y022018D02*
X010610Y022018D01*
X010610Y021018D02*
X009910Y021018D01*
X009760Y021018D02*
X010260Y021018D01*
X010635Y021018D01*
X011260Y020393D01*
X009760Y021018D02*
X009760Y018268D01*
X012010Y018268D01*
X012760Y024268D02*
X010010Y024268D01*
X043250Y020893D02*
X043260Y020883D01*
D24*
X020935Y026393D03*
X020335Y026393D03*
D25*
X019885Y026393D01*
X019510Y026018D01*
X019510Y026393D01*
X019885Y026393D01*
X019510Y026393D02*
X019135Y026393D01*
X019010Y026268D01*
X019010Y025893D01*
X018760Y025643D01*
X019135Y025643D01*
X019510Y026018D01*
X019010Y026268D02*
X018510Y025768D01*
X018510Y025643D01*
X018760Y025643D02*
X019510Y026393D01*
X019635Y027393D02*
X022760Y027393D01*
X023760Y026393D01*
X023760Y026768D01*
X022385Y028143D01*
X019885Y028143D01*
X019635Y027893D01*
X019385Y027643D01*
X019635Y027393D01*
X019760Y027643D02*
X019385Y027643D01*
X018885Y027643D01*
X018885Y028018D01*
X018385Y028518D01*
X018385Y029518D01*
X018760Y029893D01*
X019010Y029893D01*
X019635Y029893D01*
X019260Y029518D01*
X019135Y029518D01*
X018885Y029268D01*
X019135Y029018D02*
X020010Y029893D01*
X019635Y029893D01*
X020010Y029893D02*
X027520Y029893D01*
X028385Y029893D01*
X028135Y029643D01*
X028135Y029393D01*
X028260Y029268D01*
X028260Y029143D01*
X028385Y029143D01*
X029010Y029768D01*
X028760Y029893D02*
X028385Y029893D01*
X028760Y029893D02*
X028270Y029403D01*
X028270Y029143D01*
X027520Y029893D01*
X028270Y029143D02*
X028270Y028643D01*
X028760Y029893D02*
X037635Y029893D01*
X038010Y029893D01*
X038510Y029893D01*
X040010Y028393D01*
X040010Y028893D01*
X039385Y029518D01*
X039135Y029518D01*
X039010Y029643D02*
X038760Y029893D01*
X038510Y029893D01*
X038760Y029893D02*
X040010Y029893D01*
X040510Y029393D01*
X040510Y028393D01*
X040010Y027893D01*
X039885Y028018D02*
X040135Y028268D01*
X040135Y029393D01*
X039885Y029643D01*
X039010Y029643D01*
X039385Y029518D02*
X039510Y029518D01*
X040010Y029018D01*
X040010Y028893D01*
X040510Y028393D02*
X040510Y028018D01*
X040135Y027643D01*
X040010Y027518D02*
X037635Y029893D01*
X038010Y029893D02*
X039885Y028018D01*
X037760Y028393D02*
X037010Y029143D01*
X036635Y029143D01*
X037385Y028393D01*
X037010Y028018D01*
X037010Y028518D01*
X036760Y028643D02*
X036260Y029143D01*
X036635Y029143D01*
X036260Y029143D02*
X034760Y029143D01*
X034260Y028643D01*
X034250Y028643D01*
X035260Y028393D02*
X035260Y027393D01*
X035510Y027643D01*
X035510Y027768D01*
X034885Y027143D01*
X035260Y027143D01*
X035135Y027018D01*
X034510Y027018D01*
X034260Y027143D02*
X034760Y027143D01*
X033385Y025768D01*
X033260Y025768D01*
X033385Y025768D02*
X033385Y026268D01*
X034260Y027143D01*
X034760Y027143D02*
X034885Y027143D01*
X035260Y027143D02*
X035260Y027393D01*
X035510Y027393D02*
X035760Y027643D01*
X035760Y028393D01*
X035760Y028518D01*
X035385Y028518D01*
X035260Y028393D01*
X035510Y028268D02*
X035510Y027768D01*
X035510Y027393D02*
X035260Y027143D01*
X035010Y026268D02*
X037135Y026268D01*
X037510Y026643D01*
X037510Y026393D01*
X037635Y026518D01*
X038760Y026518D01*
X038260Y026018D01*
X035635Y026018D01*
X034885Y025268D01*
X034385Y025268D01*
X035260Y026143D01*
X035510Y026143D02*
X037935Y026143D01*
X038010Y026218D01*
X038085Y026218D01*
X038510Y026643D01*
X040635Y026643D01*
X040760Y026518D01*
X038760Y026518D01*
X038510Y026643D02*
X037510Y026643D01*
X036760Y027393D02*
X036760Y028643D01*
X037760Y028393D02*
X036760Y027393D01*
X035510Y026143D02*
X034885Y025393D01*
X034885Y025268D01*
X034885Y023643D01*
X035385Y023143D01*
X035385Y021768D01*
X035385Y021643D01*
X035635Y021643D01*
X035635Y022893D01*
X035510Y023018D01*
X035385Y023143D01*
X035510Y023018D02*
X035385Y021768D01*
X034635Y021643D02*
X034385Y021643D01*
X034010Y022018D01*
X034010Y022268D01*
X034260Y021768D01*
X034510Y021893D01*
X034135Y022268D01*
X034135Y023018D01*
X033510Y023643D01*
X033885Y024018D01*
X033885Y023768D01*
X034010Y023643D01*
X034010Y022268D01*
X034635Y022768D02*
X034635Y021643D01*
X034260Y021768D02*
X034510Y022893D01*
X034635Y022768D01*
X034510Y022893D02*
X034260Y023143D01*
X034260Y023393D01*
X034010Y023643D01*
X033760Y023643D02*
X033760Y023893D01*
X034247Y024393D01*
X034260Y024393D02*
X034260Y023393D01*
X034260Y023143D02*
X033760Y023643D01*
X033510Y023643D01*
X033135Y023643D01*
X032135Y023643D01*
X031135Y023643D02*
X031135Y024018D01*
X030510Y024643D01*
X030510Y026018D01*
X029885Y026643D01*
X028885Y026643D01*
X028635Y026393D01*
X028635Y025643D01*
X028385Y025643D01*
X028385Y026143D01*
X028510Y026268D01*
X028510Y025768D01*
X028635Y025643D01*
X029260Y025768D02*
X029260Y025893D01*
X029510Y025893D01*
X029510Y025143D01*
X029385Y025018D01*
X029385Y025768D01*
X029260Y025768D01*
X029260Y024893D01*
X029385Y025018D01*
X029260Y024893D02*
X029135Y024768D01*
X029135Y023768D01*
X028260Y023768D01*
X028260Y023643D01*
X029135Y023643D01*
X029135Y023518D01*
X028135Y023518D01*
X028135Y023643D02*
X028260Y023643D01*
X028260Y023768D02*
X028260Y023893D01*
X028135Y023643D02*
X028135Y024893D01*
X027510Y025518D01*
X027510Y026268D01*
X027760Y026518D01*
X027760Y026893D01*
X027260Y026893D01*
X027260Y026518D01*
X027510Y026268D01*
X027510Y026643D01*
X026760Y025893D02*
X026260Y026393D01*
X025885Y026018D01*
X025885Y027393D01*
X026260Y027768D01*
X026260Y027653D02*
X026250Y028643D01*
X026260Y027653D02*
X026260Y026393D01*
X026260Y026018D01*
X026385Y025893D01*
X026385Y025268D01*
X026635Y025268D01*
X027135Y024768D01*
X027135Y024518D01*
X026760Y024893D01*
X026760Y025893D01*
X026260Y026018D02*
X026260Y024893D01*
X025885Y024518D01*
X025885Y026018D01*
X026010Y025893D01*
X026010Y025268D01*
X026385Y025268D02*
X026510Y025143D01*
X026760Y024893D02*
X026260Y024893D01*
X026010Y024768D02*
X026635Y024768D01*
X027135Y024268D01*
X027135Y024393D01*
X027135Y024518D01*
X027135Y024268D02*
X027135Y023643D01*
X026010Y023393D02*
X026885Y022518D01*
X029635Y022518D01*
X030135Y023018D01*
X030135Y023643D01*
X029135Y023643D02*
X029135Y023768D01*
X031635Y024893D02*
X031635Y025518D01*
X032510Y026393D01*
X032510Y026143D01*
X031885Y025518D01*
X031885Y025018D01*
X032260Y025018D01*
X032385Y025143D01*
X032385Y025518D01*
X032260Y025518D01*
X032135Y025393D01*
X032510Y025268D02*
X032510Y026143D01*
X032510Y026393D02*
X032510Y028393D01*
X032260Y028633D01*
X032270Y028643D01*
X031510Y027018D02*
X030385Y028143D01*
X030135Y028143D01*
X030135Y027768D01*
X031385Y026518D01*
X031635Y026518D01*
X031635Y026643D01*
X031635Y026893D01*
X031510Y027018D01*
X031510Y026643D02*
X031635Y026643D01*
X031510Y026643D02*
X030260Y027893D01*
X030260Y028633D01*
X030250Y028643D01*
X028635Y026393D02*
X028510Y026268D01*
X025885Y024518D02*
X025260Y023893D01*
X025260Y022518D01*
X025260Y022143D01*
X025010Y021893D01*
X025010Y021518D01*
X025260Y021518D02*
X025260Y022143D01*
X025260Y022518D02*
X024697Y021956D01*
X024760Y021893D01*
X024760Y021143D01*
X024510Y021393D01*
X024510Y021268D01*
X024260Y021143D01*
X024510Y021143D01*
X024760Y020893D01*
X024760Y021018D01*
X025260Y021518D01*
X024697Y021956D02*
X023885Y021143D01*
X024260Y021143D01*
X024510Y021143D02*
X024760Y021143D01*
X024760Y021018D01*
X024760Y020893D02*
X024760Y019518D01*
X025260Y019018D01*
X025010Y018768D01*
X024885Y018393D02*
X025385Y018893D01*
X024885Y019143D02*
X024885Y018393D01*
X024885Y018268D01*
X024760Y017893D02*
X024760Y016893D01*
X024270Y016403D01*
X024270Y015893D01*
X023260Y016643D02*
X023260Y015018D01*
X023635Y014643D01*
X026885Y014643D01*
X027260Y015018D01*
X027260Y018206D01*
X027822Y018768D01*
X029010Y018768D01*
X029010Y018643D01*
X029010Y018768D02*
X029010Y018893D01*
X027947Y018893D01*
X027885Y018831D01*
X029010Y018768D01*
X028447Y018081D02*
X028135Y018081D01*
X028072Y018081D01*
X028010Y018018D01*
X028010Y017331D01*
X028260Y017081D01*
X028572Y017393D01*
X028572Y017956D01*
X028447Y018081D01*
X028260Y018018D02*
X028197Y018018D01*
X028135Y018081D01*
X028135Y017893D02*
X028260Y017893D01*
X028260Y017081D01*
X028260Y015903D01*
X028270Y015893D01*
X028260Y015883D01*
X028260Y015143D01*
X028760Y014643D01*
X032885Y014643D01*
X033260Y015018D01*
X033260Y016643D01*
X033760Y017143D01*
X033760Y017393D01*
X034260Y017893D01*
X034260Y017768D02*
X034260Y017643D01*
X034510Y017893D01*
X034760Y017893D01*
X034885Y017768D01*
X034885Y017893D01*
X034635Y018143D01*
X034010Y018143D01*
X033760Y017893D01*
X033760Y017393D01*
X034010Y017393D02*
X033760Y017143D01*
X034010Y017393D02*
X034635Y017393D01*
X034885Y017643D01*
X034885Y017768D01*
X034760Y017643D01*
X034260Y017643D02*
X034010Y017393D01*
X033010Y017518D02*
X032260Y016768D01*
X032260Y015903D01*
X032270Y015893D01*
X031385Y016893D02*
X032260Y017768D01*
X032260Y018018D01*
X030135Y018018D01*
X030260Y017893D01*
X030635Y017518D01*
X030635Y016768D01*
X030510Y016643D01*
X030635Y016643D01*
X031760Y017768D01*
X030885Y017768D01*
X030760Y017643D01*
X031260Y017643D01*
X030760Y017143D01*
X031385Y016893D02*
X030885Y016393D01*
X030260Y015768D01*
X030250Y015893D02*
X030250Y017883D01*
X030260Y017893D01*
X032135Y017893D01*
X031385Y017643D02*
X031260Y017643D01*
X030135Y018018D02*
X029885Y018268D01*
X029885Y019768D01*
X030135Y020018D01*
X030135Y020643D01*
X031135Y020643D02*
X031135Y021018D01*
X030385Y021768D01*
X029510Y021768D01*
X029135Y021393D01*
X028760Y021768D01*
X029135Y021768D01*
X029510Y021768D01*
X029135Y021768D02*
X029135Y021393D01*
X029135Y020643D01*
X028135Y020643D02*
X028135Y020081D01*
X026260Y018206D01*
X026260Y017768D01*
X026260Y016893D01*
X026010Y016643D01*
X026010Y016018D01*
X026135Y015893D01*
X026250Y015893D02*
X026250Y016403D01*
X026260Y016393D01*
X026260Y015893D01*
X026385Y015956D02*
X026447Y016018D01*
X026447Y018081D01*
X026447Y017956D02*
X026260Y017768D01*
X026447Y017956D02*
X026447Y018456D01*
X026322Y018456D01*
X026010Y018143D01*
X026010Y016643D01*
X026250Y016403D01*
X026260Y016393D02*
X026260Y016893D01*
X026385Y015956D02*
X026385Y015768D01*
X024060Y017443D02*
X023260Y016643D01*
X022385Y017143D02*
X022135Y017518D01*
X020135Y015518D01*
X021510Y016643D01*
X021510Y016268D01*
X020635Y015518D01*
X021760Y016518D01*
X021760Y016893D01*
X021760Y019018D01*
X022010Y019268D01*
X022385Y019643D01*
X022385Y017143D01*
X023260Y018018D01*
X023260Y020518D01*
X022635Y020893D02*
X024510Y022768D01*
X024510Y024643D01*
X025135Y025268D01*
X025135Y026518D01*
X025010Y026643D01*
X024510Y026643D01*
X024510Y025768D01*
X024510Y025268D01*
X024635Y025143D01*
X024635Y025393D01*
X024885Y025643D01*
X024885Y026268D01*
X024760Y026393D01*
X024760Y025268D01*
X024885Y025143D01*
X024510Y025268D02*
X024510Y024643D01*
X023760Y025018D02*
X023760Y026393D01*
X022760Y025893D02*
X022760Y025018D01*
X022760Y024143D01*
X022385Y023768D01*
X021760Y023768D01*
X021635Y023643D01*
X021635Y023581D01*
X021947Y023268D01*
X022322Y023268D01*
X022760Y023706D01*
X022760Y023893D01*
X022760Y024143D01*
X022760Y023893D02*
X022260Y023393D01*
X022010Y023393D01*
X021885Y023393D01*
X021635Y023643D01*
X021635Y023768D01*
X021760Y023768D01*
X020760Y024643D02*
X021135Y025018D01*
X020135Y025018D01*
X019635Y025018D01*
X019260Y024643D01*
X019510Y024643D01*
X019760Y024893D01*
X019760Y024643D02*
X020135Y025018D01*
X020260Y024643D02*
X019760Y024643D01*
X019510Y024643D01*
X019260Y024643D02*
X018260Y024643D01*
X017635Y025268D01*
X017635Y027393D01*
X017135Y027893D01*
X015010Y027893D01*
X015010Y028893D01*
X016010Y028893D02*
X016760Y028893D01*
X016885Y029018D01*
X016885Y029268D01*
X016760Y029393D01*
X016010Y029393D01*
X016135Y029143D01*
X016760Y029143D01*
X016135Y029143D02*
X016010Y028893D01*
X018760Y028143D02*
X018760Y027643D01*
X018760Y029643D01*
X019010Y029893D01*
X019135Y029018D02*
X019135Y028518D01*
X018760Y028143D01*
X018760Y027643D02*
X018885Y027643D01*
X019635Y027893D02*
X020010Y027893D01*
X022385Y027893D01*
X022510Y027643D02*
X022760Y027393D01*
X022510Y027643D02*
X019760Y027643D01*
X020010Y027893D01*
X020635Y028893D02*
X022760Y028893D01*
X023260Y028393D01*
X024260Y028393D01*
X024385Y028393D02*
X024385Y028768D01*
X024260Y028893D01*
X023010Y028893D01*
X022760Y028893D01*
X022760Y029143D02*
X023010Y028893D01*
X023135Y028768D01*
X024260Y028768D01*
X024260Y028893D01*
X024270Y028643D02*
X023260Y028643D01*
X023135Y028768D01*
X022760Y029143D02*
X022635Y029268D01*
X020635Y029268D01*
X020635Y028893D01*
X020760Y029143D02*
X020635Y029268D01*
X020760Y029143D02*
X022760Y029143D01*
X022260Y026393D02*
X020935Y026393D01*
X022260Y026393D02*
X022760Y025893D01*
X023760Y025018D02*
X023760Y023018D01*
X022385Y021643D01*
X021260Y021643D01*
X021010Y021893D01*
X020385Y022518D01*
X020385Y022018D01*
X020260Y021893D02*
X021010Y021893D01*
X020260Y021893D02*
X020260Y022643D01*
X020635Y023643D02*
X021510Y022768D01*
X021635Y022643D01*
X022010Y022268D01*
X022072Y022268D01*
X022260Y022456D01*
X022260Y022518D01*
X022135Y022643D01*
X021635Y022643D01*
X021885Y022393D01*
X022010Y022393D01*
X022635Y020893D02*
X020260Y020893D01*
X020260Y019893D02*
X020260Y019393D01*
X020510Y019143D01*
X020510Y017768D01*
X020510Y018893D01*
X020135Y018518D02*
X020260Y019393D01*
X019760Y018893D01*
X019760Y017768D01*
X019885Y017643D01*
X020385Y017643D01*
X020510Y017768D01*
X020385Y017893D01*
X019885Y017893D01*
X019885Y018893D01*
X021510Y018768D02*
X021510Y019768D01*
X021885Y020143D01*
X022385Y020143D01*
X021635Y019393D01*
X022010Y019268D02*
X022010Y018143D01*
X023010Y018143D01*
X022885Y017893D02*
X022635Y017643D01*
X022635Y018518D01*
X022010Y017893D01*
X022010Y017518D01*
X022385Y017143D02*
X021760Y016518D01*
X021510Y016268D01*
X020635Y015393D01*
X020635Y015518D01*
X020635Y015393D02*
X020135Y015518D01*
X021510Y016643D02*
X021510Y018768D01*
X021635Y018643D01*
X021635Y018268D01*
X021885Y018018D02*
X022010Y018143D01*
X022635Y018518D02*
X022635Y019518D01*
X022385Y019643D02*
X023885Y021143D01*
X024060Y020268D02*
X024060Y017443D01*
X024760Y017893D02*
X024760Y019518D01*
X024885Y019143D02*
X026010Y019143D01*
X026385Y019518D01*
X026447Y019518D01*
X026385Y019518D02*
X024760Y017893D01*
X022885Y017893D02*
X022885Y019893D01*
X023135Y020143D01*
X023010Y020143D02*
X022385Y020143D01*
X021760Y019018D02*
X021510Y018768D01*
X025385Y020268D02*
X025385Y020518D01*
X025760Y020893D01*
X026510Y020893D01*
X026760Y020643D01*
X027135Y020643D01*
X027635Y020643D01*
X027885Y020393D01*
X027885Y020268D01*
X027635Y020518D01*
X025510Y020518D01*
X025510Y020268D02*
X025385Y020268D01*
X025460Y020268D02*
X025585Y020218D01*
X026010Y020643D01*
X026760Y020643D01*
X026510Y020768D02*
X028135Y020768D01*
X028135Y020393D01*
X027885Y020143D01*
X027885Y020268D01*
X027885Y020143D02*
X027885Y019893D01*
X027635Y020643D02*
X028135Y020643D01*
X028760Y021768D02*
X026760Y021768D01*
X026635Y021768D01*
X026135Y021768D01*
X026010Y021893D01*
X026010Y022393D01*
X026635Y021768D01*
X027885Y018831D02*
X027822Y018768D01*
X030760Y018768D02*
X030760Y019268D01*
X031010Y019518D01*
X031135Y019518D01*
X031135Y019018D01*
X031885Y019018D01*
X032135Y018768D01*
X032510Y018768D01*
X032135Y019143D01*
X031385Y019143D01*
X031260Y019268D01*
X031510Y019268D02*
X031635Y019268D01*
X032135Y019768D01*
X032385Y019518D01*
X032135Y019518D01*
X032135Y019143D01*
X032135Y018768D01*
X030760Y018768D01*
X031135Y019518D02*
X031447Y019518D01*
X032135Y019518D01*
X033010Y018768D01*
X033010Y018893D01*
X033010Y019018D01*
X032510Y019518D01*
X032385Y019518D01*
X032385Y019268D02*
X032885Y018768D01*
X032510Y018768D01*
X033010Y018268D01*
X033010Y018768D01*
X033010Y018893D02*
X032635Y019268D01*
X032385Y019268D01*
X032135Y019518D02*
X032135Y019768D01*
X032135Y020643D01*
X033135Y020643D02*
X033510Y020643D01*
X035760Y018393D01*
X035760Y016893D01*
X034760Y015893D01*
X034250Y015893D01*
X034385Y015768D02*
X034760Y015768D01*
X035635Y014893D01*
X037510Y014893D01*
X036760Y015643D01*
X035135Y015643D01*
X035010Y015768D01*
X035135Y015768D01*
X035760Y015143D01*
X037010Y015143D01*
X036760Y015393D01*
X035760Y015393D01*
X036510Y015268D02*
X036510Y015518D01*
X036760Y015768D01*
X036635Y015893D01*
X036697Y015956D01*
X036697Y020831D01*
X036760Y020893D01*
X036885Y021018D02*
X036885Y021393D01*
X037010Y021393D01*
X037135Y021518D01*
X037135Y024393D01*
X036760Y024518D02*
X036760Y021143D01*
X036885Y021018D01*
X036635Y021018D02*
X036635Y023393D01*
X035635Y024393D01*
X035760Y024393D01*
X035760Y024643D01*
X036135Y025018D01*
X039135Y025018D01*
X039635Y025518D01*
X040010Y025518D01*
X040010Y024893D01*
X040010Y024643D01*
X039635Y024268D01*
X038760Y024268D01*
X039760Y025268D01*
X039760Y024893D01*
X040010Y024643D02*
X038885Y024643D01*
X038635Y024643D01*
X038510Y024518D01*
X038635Y024518D01*
X039135Y025018D01*
X038885Y024643D02*
X037385Y023143D01*
X037385Y022643D01*
X038260Y022768D02*
X038385Y022893D01*
X038385Y021768D01*
X038385Y020393D01*
X038260Y020268D01*
X037510Y019518D01*
X037510Y019768D01*
X038072Y020331D01*
X038260Y020518D01*
X038260Y022768D01*
X038385Y022893D02*
X038885Y023393D01*
X039010Y023518D01*
X040760Y023518D01*
X040760Y023268D01*
X038822Y023268D01*
X038510Y022956D01*
X038510Y022518D01*
X039385Y023393D01*
X040697Y023393D01*
X040760Y022643D02*
X040260Y022143D01*
X040260Y022268D01*
X040135Y022393D01*
X040135Y022268D01*
X040010Y022143D01*
X040010Y022393D01*
X039760Y022643D01*
X039385Y022268D01*
X039385Y019268D01*
X039385Y018893D01*
X038885Y018393D01*
X039010Y018268D02*
X038760Y018268D01*
X039635Y017393D01*
X039635Y018143D01*
X039510Y018268D01*
X039385Y018268D01*
X039260Y018143D01*
X039510Y017893D01*
X039260Y017518D02*
X039260Y015393D01*
X039260Y014893D01*
X039385Y014893D01*
X039760Y015268D01*
X039760Y018768D01*
X039260Y018268D01*
X039010Y018268D01*
X039385Y018643D01*
X039385Y018893D01*
X039135Y018768D02*
X038885Y018768D01*
X038385Y018268D01*
X039385Y017268D01*
X039385Y014893D01*
X039260Y015393D01*
X038760Y014893D01*
X039260Y014893D01*
X038760Y014893D02*
X037760Y014893D01*
X037510Y014893D01*
X037760Y014893D02*
X036697Y015956D01*
X036635Y016018D01*
X036635Y016143D01*
X036560Y016143D01*
X036635Y016143D02*
X036635Y020518D01*
X036510Y020643D01*
X033510Y020643D01*
X034135Y020393D02*
X034635Y020393D01*
X035760Y019268D01*
X035760Y019768D01*
X035010Y020518D01*
X035510Y020518D01*
X035760Y020268D01*
X035760Y020518D02*
X036135Y020518D01*
X036635Y021018D01*
X036635Y020518D02*
X037510Y021393D01*
X037510Y023518D01*
X037760Y023768D02*
X037760Y024393D01*
X037885Y024518D01*
X038010Y024393D01*
X038010Y024643D02*
X037510Y024643D01*
X037385Y021768D01*
X037510Y021393D01*
X038072Y020331D02*
X038072Y020143D01*
X038322Y020143D01*
X038510Y020331D01*
X038510Y020268D01*
X037510Y019268D01*
X037510Y019518D01*
X037510Y019268D02*
X037510Y017393D01*
X038260Y016643D01*
X038260Y016018D01*
X038135Y015893D01*
X038010Y015893D01*
X037510Y016393D01*
X037510Y017143D01*
X038260Y016643D01*
X037760Y016518D01*
X037960Y016143D01*
X037635Y016643D02*
X037510Y017393D01*
X037510Y017143D01*
X036635Y016018D02*
X034760Y015893D01*
X035135Y016018D02*
X035385Y016018D01*
X035885Y016518D01*
X035885Y018643D01*
X034135Y020393D01*
X033010Y018268D02*
X033010Y017518D01*
X030885Y016393D02*
X030260Y016393D01*
X037010Y015143D02*
X037135Y015143D01*
X039260Y017518D02*
X038760Y018143D01*
X038760Y018268D01*
X038385Y018268D01*
X038260Y018268D01*
X038885Y018768D02*
X039385Y019268D01*
X039760Y018768D02*
X039760Y020893D01*
X041260Y022393D01*
X041197Y022643D01*
X040760Y022643D01*
X041197Y022643D02*
X040385Y021768D01*
X039760Y021143D01*
X039760Y020893D01*
X039760Y021143D02*
X039760Y021768D01*
X040385Y021768D01*
X039760Y021768D02*
X039760Y022643D01*
X041197Y022643D01*
X041572Y023456D02*
X041697Y023393D01*
X042385Y022768D01*
X042572Y022581D01*
X042447Y022581D01*
X042510Y022643D01*
X042635Y022643D01*
X042572Y022581D02*
X043447Y022581D01*
X043447Y022768D01*
X043322Y022893D01*
X042385Y022893D01*
X041885Y023393D01*
X041885Y025393D01*
X041572Y025706D01*
X041572Y023456D01*
X042447Y022581D01*
X042385Y022768D02*
X043260Y022768D01*
X043260Y023768D02*
X043135Y023768D01*
X042635Y024268D01*
X042635Y026268D01*
X044135Y026268D01*
X044135Y024393D01*
X043510Y023768D01*
X043260Y023768D01*
X043260Y023893D01*
X044010Y024643D01*
X044010Y026018D01*
X043010Y026018D01*
X043010Y024393D01*
X043135Y024268D01*
X043260Y024268D01*
X043760Y024768D01*
X043760Y025768D01*
X043260Y025768D01*
X043260Y025018D01*
X043510Y025018D01*
X043510Y025518D01*
X043260Y024893D02*
X043260Y023768D01*
X043260Y024893D02*
X044010Y024893D01*
X041572Y025706D02*
X040760Y026518D01*
X040010Y025643D02*
X040010Y025518D01*
X038635Y024643D02*
X038010Y024643D01*
X038010Y024818D01*
X037510Y024643D02*
X035760Y024643D01*
X035647Y024531D01*
X035647Y024393D01*
X035760Y024393D02*
X035885Y024393D01*
X036760Y023518D01*
X036760Y023768D01*
X036135Y024393D01*
X036635Y024393D01*
X036760Y024518D01*
X037760Y023768D02*
X038260Y024268D01*
X038760Y024268D01*
X038510Y024518D02*
X038260Y024268D01*
X038885Y023393D02*
X039385Y023393D01*
X038510Y022518D02*
X038510Y020331D01*
X033635Y024893D02*
X032885Y024893D01*
X032510Y025268D01*
X032885Y024893D02*
X031635Y024893D01*
X033635Y024893D02*
X034010Y025268D01*
X034385Y025268D01*
X034135Y025393D02*
X035010Y026268D01*
X034885Y025393D02*
X034135Y025393D01*
X034010Y025268D01*
X021760Y025018D02*
X021135Y025018D01*
X020760Y024643D02*
X020260Y024643D01*
X020260Y023643D02*
X020635Y023643D01*
D26*
X026760Y024893D03*
X031635Y024893D03*
X040010Y025643D03*
X040010Y027518D03*
X030760Y018768D03*
X029010Y018768D03*
D27*
X022135Y017268D02*
X021760Y016893D01*
D28*
X015510Y021893D02*
X015510Y023268D01*
X016260Y022518D01*
X016510Y022518D01*
X017010Y023393D02*
X018010Y023393D01*
X018010Y023643D01*
X017010Y024643D01*
X016385Y024643D01*
X016010Y025018D01*
X016010Y024768D01*
X016635Y024143D01*
X016760Y024143D01*
X017135Y023768D01*
X017135Y024018D01*
X016760Y024393D01*
X016760Y023768D02*
X016635Y023768D01*
X016760Y023643D01*
X017010Y023393D01*
X016760Y023643D02*
X017635Y023643D01*
X016635Y023768D02*
X016010Y024393D01*
X016010Y024768D01*
X016010Y025018D02*
X016010Y025893D01*
X014010Y025893D02*
X014010Y024768D01*
X014885Y023893D01*
X014885Y022768D01*
X015135Y023018D01*
X015385Y023018D01*
X014760Y022393D01*
X014260Y022393D01*
X015260Y023393D01*
X015260Y023518D01*
X014885Y023893D01*
X015260Y023518D02*
X015510Y023268D01*
X041260Y020268D02*
X041885Y020893D01*
X042260Y020893D01*
X042510Y020893D02*
X043250Y020893D01*
X043260Y018903D02*
X043260Y018768D01*
X042760Y018268D01*
X041260Y018268D01*
D29*
X014510Y014768D02*
X013135Y014768D01*
X013135Y017143D01*
X012010Y018268D01*
X012135Y018768D02*
X013635Y017268D01*
X013635Y018518D01*
X012885Y019268D01*
X012135Y019268D01*
X013385Y018018D01*
X013635Y017268D02*
X013635Y016768D01*
X013635Y016393D02*
X014135Y016893D01*
X014135Y018893D01*
X013260Y019768D01*
X011010Y019768D01*
X010260Y020518D01*
X010260Y019018D01*
X010010Y018768D01*
X012135Y018768D01*
X012135Y019268D02*
X010760Y019268D01*
X011260Y020393D02*
X013510Y020393D01*
X013760Y020143D01*
X013510Y019893D01*
X013510Y019768D01*
X013760Y020143D02*
X014635Y019268D01*
X014635Y014893D01*
X014510Y014768D01*
X014635Y014768D02*
X014260Y014768D01*
X014270Y014778D01*
X014270Y016143D01*
X013635Y016393D02*
X013635Y015018D01*
X014135Y015018D01*
X014635Y014893D02*
X014635Y014768D01*
X015885Y014768D02*
X015885Y015778D01*
X016250Y016143D01*
X015885Y015778D02*
X015885Y019768D01*
X014135Y021518D01*
X011760Y021518D01*
X011260Y022018D01*
X015385Y022018D01*
X015510Y021893D01*
X016635Y020768D01*
X016760Y020268D02*
X016760Y021268D01*
X016135Y021893D01*
X015510Y021893D01*
X015385Y021893D01*
X014385Y022143D02*
X016385Y020143D01*
X016385Y015268D01*
X017885Y015268D01*
X017885Y018018D01*
X016760Y019143D01*
X016760Y015768D01*
X016885Y015643D01*
X017010Y015643D01*
X017260Y015893D01*
X017260Y018268D01*
X017010Y018518D01*
X017010Y020018D01*
X016760Y020268D01*
X017135Y019393D02*
X017135Y021893D01*
X017260Y021768D01*
X017260Y018768D01*
X017510Y018518D01*
X018385Y018143D02*
X017135Y019393D01*
X018385Y019893D02*
X018510Y019768D01*
X018510Y021893D01*
X018385Y021768D01*
X018385Y019893D01*
X018385Y018143D02*
X018385Y014768D01*
X015885Y014768D01*
X017135Y021893D02*
X016635Y022393D01*
X016510Y022518D01*
X011760Y022518D01*
X011260Y022018D01*
X010260Y022018D01*
X009760Y022018D01*
X010135Y023643D02*
X010135Y024143D01*
X010010Y024268D01*
X011385Y023768D02*
X011635Y024018D01*
X012760Y024268D02*
X012885Y024143D01*
X014385Y022268D02*
X014385Y022143D01*
D30*
X011135Y016143D03*
D31*
X011260Y028393D03*
X042760Y028393D03*
X042760Y016143D03*
D32*
X042635Y018143D02*
X041010Y018143D01*
X041010Y018893D01*
X043135Y018893D01*
X043260Y018768D02*
X041635Y018768D01*
X041260Y018393D01*
X042635Y018143D02*
X043260Y018768D01*
X041760Y020143D02*
X042385Y020768D01*
X043260Y020768D01*
X043260Y020893D02*
X042510Y020893D01*
X042385Y020768D01*
X042260Y020893D01*
X041635Y020893D01*
X041260Y020893D01*
X041010Y020643D01*
X041010Y020143D01*
X041760Y020143D01*
X042260Y020893D02*
X042510Y020893D01*
M02*
