%
M48
M72
T01C0.0315
T02C0.0315
T03C0.0315
T04C0.0400
T05C0.0400
T06C0.0400
T07C0.0435
T08C0.1260
%
T01
X36760Y27393
X37760Y28393
X35760Y28393
T02
X40010Y27518
X40010Y25643
X31635Y24893
X26760Y24893
X29010Y18768
X30760Y18768
T03
X31447Y19518
X31135Y20643
X32135Y20643
X33135Y20643
X34260Y21768
X35385Y21768
X37385Y21768
X38385Y21768
X38260Y20268
X40385Y21768
X41197Y22643
X40697Y23393
X41697Y23393
X43260Y23768
X44010Y24893
X43260Y22768
X41260Y20268
X41260Y18268
X38260Y18268
X37960Y16143
X36560Y16143
X34260Y17768
X30135Y20643
X29135Y20643
X28135Y20643
X27135Y20643
X25460Y20268
X26447Y19518
X24060Y20268
X26010Y22393
X26010Y23393
X27135Y23643
X28135Y23643
X29135Y23643
X30135Y23643
X31135Y23643
X32135Y23643
X33135Y23643
X34247Y24393
X35647Y24393
X38010Y24818
X38010Y26218
X40010Y24893
X33385Y25768
X31510Y26643
X29385Y25768
X28510Y25768
X27510Y26643
X24510Y25768
X23760Y25018
X22760Y25018
X21760Y25018
X20260Y24643
X20260Y23643
X20260Y22643
X20260Y21893
X20260Y20893
X20260Y19893
X22010Y22393
X22010Y23393
X17635Y23643
X16010Y25893
X15010Y25893
X14010Y25893
X13635Y23643
X14010Y28893
X15010Y28893
X16010Y28893
X16760Y29143
X20760Y29143
T04
X18510Y21893
X15510Y21893
X13510Y19768
X18510Y19768
T05
X20135Y15518
X20135Y18518
X10260Y21018
X10260Y22018
X10260Y23018
X18760Y25643
X18760Y27643
T06
X23010Y18143
X26260Y18143
X28135Y17893
X32135Y17893
T07
X32270Y15893
X34250Y15893
X30250Y15893
X28270Y15893
X26250Y15893
X24270Y15893
X16250Y16143
X14270Y16143
X11760Y20048
X11760Y22018
X11760Y23988
X24270Y28643
X26250Y28643
X28270Y28643
X30250Y28643
X32270Y28643
X34250Y28643
X43260Y20883
X43260Y18903
T08
X42760Y16143
X42760Y28393
X11260Y28393
X11135Y16143
M30
