G75*
%MOIN*%
%OFA0B0*%
%FSLAX24Y24*%
%IPPOS*%
%LPD*%
%AMOC8*
5,1,8,0,0,1.08239X$1,22.5*
%
%ADD10C,0.0000*%
D10*
X006680Y011143D02*
X006680Y038763D01*
X047672Y038763D01*
X047672Y011143D01*
X006680Y011143D01*
X007550Y032393D02*
X007552Y032443D01*
X007558Y032493D01*
X007568Y032542D01*
X007582Y032590D01*
X007599Y032637D01*
X007620Y032682D01*
X007645Y032726D01*
X007673Y032767D01*
X007705Y032806D01*
X007739Y032843D01*
X007776Y032877D01*
X007816Y032907D01*
X007858Y032934D01*
X007902Y032958D01*
X007948Y032979D01*
X007995Y032995D01*
X008043Y033008D01*
X008093Y033017D01*
X008142Y033022D01*
X008193Y033023D01*
X008243Y033020D01*
X008292Y033013D01*
X008341Y033002D01*
X008389Y032987D01*
X008435Y032969D01*
X008480Y032947D01*
X008523Y032921D01*
X008564Y032892D01*
X008603Y032860D01*
X008639Y032825D01*
X008671Y032787D01*
X008701Y032747D01*
X008728Y032704D01*
X008751Y032660D01*
X008770Y032614D01*
X008786Y032566D01*
X008798Y032517D01*
X008806Y032468D01*
X008810Y032418D01*
X008810Y032368D01*
X008806Y032318D01*
X008798Y032269D01*
X008786Y032220D01*
X008770Y032172D01*
X008751Y032126D01*
X008728Y032082D01*
X008701Y032039D01*
X008671Y031999D01*
X008639Y031961D01*
X008603Y031926D01*
X008564Y031894D01*
X008523Y031865D01*
X008480Y031839D01*
X008435Y031817D01*
X008389Y031799D01*
X008341Y031784D01*
X008292Y031773D01*
X008243Y031766D01*
X008193Y031763D01*
X008142Y031764D01*
X008093Y031769D01*
X008043Y031778D01*
X007995Y031791D01*
X007948Y031807D01*
X007902Y031828D01*
X007858Y031852D01*
X007816Y031879D01*
X007776Y031909D01*
X007739Y031943D01*
X007705Y031980D01*
X007673Y032019D01*
X007645Y032060D01*
X007620Y032104D01*
X007599Y032149D01*
X007582Y032196D01*
X007568Y032244D01*
X007558Y032293D01*
X007552Y032343D01*
X007550Y032393D01*
X038550Y025393D02*
X038552Y025443D01*
X038558Y025493D01*
X038568Y025542D01*
X038582Y025590D01*
X038599Y025637D01*
X038620Y025682D01*
X038645Y025726D01*
X038673Y025767D01*
X038705Y025806D01*
X038739Y025843D01*
X038776Y025877D01*
X038816Y025907D01*
X038858Y025934D01*
X038902Y025958D01*
X038948Y025979D01*
X038995Y025995D01*
X039043Y026008D01*
X039093Y026017D01*
X039142Y026022D01*
X039193Y026023D01*
X039243Y026020D01*
X039292Y026013D01*
X039341Y026002D01*
X039389Y025987D01*
X039435Y025969D01*
X039480Y025947D01*
X039523Y025921D01*
X039564Y025892D01*
X039603Y025860D01*
X039639Y025825D01*
X039671Y025787D01*
X039701Y025747D01*
X039728Y025704D01*
X039751Y025660D01*
X039770Y025614D01*
X039786Y025566D01*
X039798Y025517D01*
X039806Y025468D01*
X039810Y025418D01*
X039810Y025368D01*
X039806Y025318D01*
X039798Y025269D01*
X039786Y025220D01*
X039770Y025172D01*
X039751Y025126D01*
X039728Y025082D01*
X039701Y025039D01*
X039671Y024999D01*
X039639Y024961D01*
X039603Y024926D01*
X039564Y024894D01*
X039523Y024865D01*
X039480Y024839D01*
X039435Y024817D01*
X039389Y024799D01*
X039341Y024784D01*
X039292Y024773D01*
X039243Y024766D01*
X039193Y024763D01*
X039142Y024764D01*
X039093Y024769D01*
X039043Y024778D01*
X038995Y024791D01*
X038948Y024807D01*
X038902Y024828D01*
X038858Y024852D01*
X038816Y024879D01*
X038776Y024909D01*
X038739Y024943D01*
X038705Y024980D01*
X038673Y025019D01*
X038645Y025060D01*
X038620Y025104D01*
X038599Y025149D01*
X038582Y025196D01*
X038568Y025244D01*
X038558Y025293D01*
X038552Y025343D01*
X038550Y025393D01*
X038550Y017393D02*
X038552Y017443D01*
X038558Y017493D01*
X038568Y017542D01*
X038582Y017590D01*
X038599Y017637D01*
X038620Y017682D01*
X038645Y017726D01*
X038673Y017767D01*
X038705Y017806D01*
X038739Y017843D01*
X038776Y017877D01*
X038816Y017907D01*
X038858Y017934D01*
X038902Y017958D01*
X038948Y017979D01*
X038995Y017995D01*
X039043Y018008D01*
X039093Y018017D01*
X039142Y018022D01*
X039193Y018023D01*
X039243Y018020D01*
X039292Y018013D01*
X039341Y018002D01*
X039389Y017987D01*
X039435Y017969D01*
X039480Y017947D01*
X039523Y017921D01*
X039564Y017892D01*
X039603Y017860D01*
X039639Y017825D01*
X039671Y017787D01*
X039701Y017747D01*
X039728Y017704D01*
X039751Y017660D01*
X039770Y017614D01*
X039786Y017566D01*
X039798Y017517D01*
X039806Y017468D01*
X039810Y017418D01*
X039810Y017368D01*
X039806Y017318D01*
X039798Y017269D01*
X039786Y017220D01*
X039770Y017172D01*
X039751Y017126D01*
X039728Y017082D01*
X039701Y017039D01*
X039671Y016999D01*
X039639Y016961D01*
X039603Y016926D01*
X039564Y016894D01*
X039523Y016865D01*
X039480Y016839D01*
X039435Y016817D01*
X039389Y016799D01*
X039341Y016784D01*
X039292Y016773D01*
X039243Y016766D01*
X039193Y016763D01*
X039142Y016764D01*
X039093Y016769D01*
X039043Y016778D01*
X038995Y016791D01*
X038948Y016807D01*
X038902Y016828D01*
X038858Y016852D01*
X038816Y016879D01*
X038776Y016909D01*
X038739Y016943D01*
X038705Y016980D01*
X038673Y017019D01*
X038645Y017060D01*
X038620Y017104D01*
X038599Y017149D01*
X038582Y017196D01*
X038568Y017244D01*
X038558Y017293D01*
X038552Y017343D01*
X038550Y017393D01*
M02*
